<svg width="100%" height="100%" viewBox="0 0 610 477" fill="none" xmlns="http://www.w3.org/2000/svg">
<path d="M121.7 271.151C10.2002 241.151 -18.2998 152.151 65.7002 66.1515C157.866 -28.209 509.325 -24.4315 582.2 95.6515C661.7 226.651 548.2 408.151 479.7 398.151C411.2 388.151 455.2 345.151 414.2 300.151C373.2 255.151 233.2 301.151 121.7 271.151Z" fill="#A4E7FF" fill-opacity="0.3"></path>
<path d="M85 122H502M103.5 98H526.5M134.5 74.5H553M162 50.5H582.5" stroke="#A4E7FF"></path>
<path d="M38.0414 302L1 476M108.62 302L80.589 476M403.951 302L448 476M311.848 302L350.391 476" stroke="black"></path>
<path d="M471.134 250H568L539.821 350H450L471.134 250Z" fill="#7DDDFF"></path>
<path d="M560.774 365.496H480.905L498.581 353.712H560.774C566.011 358.95 562.956 363.751 560.774 365.496Z" fill="#A4E7FF"></path>
<path d="M576.837 257.424C579.153 298.88 556.19 336.414 544.42 350H534C542.799 327.176 556.962 274.892 562.944 251.602C572.669 246.944 576.258 253.543 576.837 257.424Z" fill="#A4E7FF"></path>
<path d="M519.803 365.496H405.237L422.913 353.712H519.803C525.04 358.95 521.985 363.751 519.803 365.496Z" fill="#7DDDFF"></path>
<path d="M557.119 365.496L576.759 476.789M534.206 365.496L547.954 476.789M415.5 365.496L400 476.789" stroke="#A4E7FF"></path>
<path d="M315.5 162V267H202V162H315.5Z" fill="#A4E7FF"></path>
<path d="M106.5 175.5L185.5 163V267H106.5V175.5Z" fill="#A4E7FF"></path>
<rect x="186" y="163" width="4" height="104" fill="#7DDDFF"></rect>
<path d="M103.5 295.5L133.5 227H157L127 295.5H103.5Z" fill="#7DDDFF"></path>
<rect x="242" y="226" width="34" height="69" fill="#7DDDFF"></rect>
<rect x="97" y="294" width="67" height="3" fill="#7DDDFF"></rect>
<rect x="226" y="294" width="67" height="3" fill="#7DDDFF"></rect>
<rect x="17" y="297" width="407" height="5" fill="black"></rect>
<path d="M496.708 353.5C515.957 353.5 515.983 327 515.983 321.183L441.823 314.302C421.053 320.036 388.256 323.952 364.708 347.5C341.161 371.048 325.232 437.009 320.645 460.327H332.878L377.208 391C377.208 406 370.594 442.233 370.722 460.327H384.483C389.963 446.82 404.699 395.495 415.708 380.816C422.32 372 441.457 353.5 496.708 353.5Z" fill="black"></path>
<path d="M423.68 227.91C423.425 224.087 429.644 216.136 456.555 214.913C465.609 214.501 474 211.778 481.5 229.139C489 246.5 518.38 297.1 516.5 316.5C515.388 327.968 511.66 332.522 495 326.5C463.272 315.032 435.735 330.357 436.5 308.95C436.524 308.276 436.533 307.586 436.527 306.879C434.548 306.959 432.538 307 430.5 307C405.883 307 382.343 301.5 372.5 297.723C370 297.751 320.941 297.464 318.208 297.1L327 288.308C343.536 286.014 423.258 273.476 423.446 241.671C422.459 236.632 422.376 231.969 423.68 227.91Z" fill="#FF5029"></path>
<path d="M438 307C450.615 307 492.245 283.624 492.5 270.5C494.925 303.335 477.962 310.861 462.289 316.978C449.751 321.871 436.981 316.429 438 312.352V307Z" fill="#FC3205"></path>
<path d="M454 240.5C454 224.88 453.752 218.226 458.849 217.589C452.605 215.805 440.174 214.437 431 223C423.436 230.06 437 259 434.002 268.43C423 271 370 276.5 370 285.5C405 285.5 427.885 281.364 434.002 278C441.647 273.795 454 258.534 454 240.5Z" fill="#FC3205"></path>
<path d="M439.682 227.467C446.716 231.748 456.5 217.145 456.5 214.794C444.65 192.24 445.476 172.138 439.682 168.598C425.921 160.188 420.569 154.836 410.248 168.598C399.926 182.359 400.87 188.475 410.248 211.794C414.952 223.492 423.117 221.987 427.45 217.145C427.45 217.145 432.648 223.185 439.682 227.467Z" fill="#F6B58B"></path>
<path d="M353.109 297.482C352.498 289.837 363.813 286.396 369.547 285.632L371.84 297.482H353.109Z" fill="#F6B58B"></path>
<path d="M319.852 297.482L326.733 288.308C319.852 289.454 304.562 292.054 298.445 293.277C292.329 294.5 292.584 296.59 293.476 297.482H319.852Z" fill="#F6B58B"></path>
<path d="M406.986 187.711C414.632 189.851 420.111 181.722 421.895 177.39C424.188 174.841 429.081 171.961 430.305 180.83C431.834 191.916 437.95 194.111 446.742 197.267C461.65 202.619 461.65 185.035 455.534 177.39C449.418 169.744 441.39 174.714 441.39 163.628C441.39 152.542 434.892 154.072 421.895 154.071C408.898 154.071 402.431 169.744 393.225 169.744C376.787 169.744 373.347 193.062 384.433 197.267C395.518 201.472 397.43 185.035 406.986 187.711Z" fill="black"></path>
<path d="M427.419 217.202C435.065 214.45 439.269 204.587 440.416 200C444.698 212.538 438.632 221.279 435.065 224.083C435.065 224.083 433.242 223.142 431.419 221.5C429.597 219.858 427.419 217.202 427.419 217.202Z" fill="#E89763"></path>
<path d="M297.327 468.737C306.807 467.208 316.313 461.984 319.881 459.563H335.553L330.966 475.618H291.593C289.554 473.961 287.847 470.266 297.327 468.737Z" fill="#FF5029"></path>
<path d="M363.077 466.826L369.957 459.563H384.866C384.866 462.621 386.65 470.139 384.866 476H346.257C345.747 474.598 345.11 474.012 348.168 472.177C351.226 470.343 361.802 468.355 363.077 466.826Z" fill="#FF5029"></path>
<ellipse cx="440" cy="190" rx="10" ry="13" fill="#7DDDFF"></ellipse>
<path d="M430 158.5C421.2 150.9 411.667 155.333 408 158.5C404.5 155.5 420 141 433.5 150C444.3 157.2 443.667 172 442 178.5H437C438.333 175 438.8 166.1 430 158.5Z" fill="#7DDDFF"></path>
<ellipse cx="445" cy="190" rx="10" ry="13" fill="#A4E7FF"></ellipse>
<path d="M440 166C436 151.6 423 148 417 148C437 139.6 442.667 156.5 443 166H440Z" fill="#A4E7FF"></path>
<path d="M85 146.5L179 79L213.5 115.5L232 100L270.5 136.5L343.5 48L407.5 124.5L448.5 89" stroke="#7DDDFF"></path>
</svg>