<svg width="100%" height="100%" viewBox="0 0 573 459" fill="none" xmlns="http://www.w3.org/2000/svg">
<path d="M542 262.518H425.5L433.5 160.018H550L542 262.518Z" fill="#A4E7FF"></path>
<path d="M343.184 188.018C337.584 223.218 367.184 240.018 382.684 244.018C431.684 264.018 537.683 244.018 535.683 324.018C533.683 404.018 462.184 458.018 236.684 452.518C11.1835 447.018 -56.3165 261.518 47.6835 150.518C151.684 39.518 311.684 -0.981978 395.184 0.0180219C478.684 1.01802 567.684 16.518 571.684 77.018C575.684 137.518 471.684 122.018 431.184 124.018C390.684 126.018 350.184 144.018 343.184 188.018Z" fill="#A4E7FF" fill-opacity="0.3"></path>
<path d="M209.077 421.518C179.41 427.018 108.077 381.018 79.5767 326.018C24.7819 220.274 164.077 208.518 209.077 421.518Z" fill="#A4E7FF" fill-opacity="0.3"></path>
<path d="M231.471 131.197C158.271 167.997 184.971 308.531 207.471 374.197C223.305 363.531 263.971 327.097 299.971 266.697C344.971 191.197 322.971 85.1973 231.471 131.197Z" fill="#A4E7FF" fill-opacity="0.3"></path>
<path d="M501.5 225.518L513.5 283.018H483L470.5 225.518H501.5Z" fill="#7DDDFF"></path>
<path d="M428 160.518H433.5L426 262.518H421L428 160.518Z" fill="#7DDDFF"></path>
<path d="M298.5 270.018H216L240 355.518H316.5L298.5 270.018Z" fill="#7DDDFF"></path>
<path d="M232.209 367.018H293.209L279.709 358.018H232.209C228.209 362.018 230.542 365.685 232.209 367.018Z" fill="#A4E7FF"></path>
<path d="M208.5 276.018C206.5 311.618 226.333 343.851 236.5 355.518H245.5C237.9 335.918 225.667 291.018 220.5 271.018C212.1 267.018 209 272.685 208.5 276.018Z" fill="#A4E7FF"></path>
<path d="M263.5 367.018H351L337.5 358.018H263.5C259.5 362.018 261.833 365.685 263.5 367.018Z" fill="#7DDDFF"></path>
<path d="M235 367.018L220 452.018M252.5 367.018L242 452.018M346 382.797L355 452.018" stroke="#A4E7FF"></path>
<path d="M284.513 357.518C272.913 351.518 275.68 336.351 278.513 329.518L312.513 313.018L337.5 318.518C362.5 318.518 395 323.018 406.513 323.018C404.913 336.618 386.18 417.185 378.513 442.018H372C362 415.618 370.667 362.185 372 352.518C355.6 375.318 295 421.018 268 441.018H262.5C280 395.018 324.833 361.518 337.5 357.518H284.513Z" fill="black"></path>
<path d="M286.513 216.018C278.513 226.818 283.18 237.185 286.513 241.018C321.013 272.018 374.013 241.018 378.513 227.018C383.013 213.018 365.013 212.018 360.013 200.018C355.013 188.018 372.013 177.518 374.013 169.018C376.013 160.518 368.013 153.018 360.013 154.518C352.013 156.018 345.513 140.018 331.013 147.018C316.513 154.018 316.513 170.018 313.013 189.518C309.513 209.018 296.513 202.518 286.513 216.018Z" fill="black"></path>
<path d="M285.013 310.518C293.413 302.518 293.167 257.185 295.5 249.518L361.5 268.018C359 274.351 345.5 297.714 345.5 318.518C345.5 325.018 335.5 331.018 328 325.018C320 322.851 307.713 319.818 302.513 325.018C296.013 331.518 293.5 334.018 285.013 334.018C267.485 334.018 274.513 320.518 285.013 310.518Z" fill="#FC3205"></path>
<path d="M369 457.018H417C417 452.518 414.5 452.018 403.5 450.018C394.7 448.418 383.167 444.018 378.5 442.018H372.5C372.5 447.018 369 450.018 369 457.018Z" fill="#FF5029"></path>
<path d="M252 457.018H280C280 451.018 275.859 450.333 272 448.018C267 445.018 273.167 442.518 268.5 440.518H262.5C257 445.018 252 450.018 252 457.018Z" fill="#FF5029"></path>
<path d="M549 282.018H354V288.018H549V282.018Z" fill="#A4E7FF"></path>
<path d="M309.513 284.018C331.513 302.018 359 290.018 370 282.518H447V272.518C438 271.851 409.778 267.251 396.513 264.018C376 259.018 370.013 233.518 357.513 225.018C347.513 218.218 334.347 218.851 329.013 220.018C320.68 220.018 302.813 221.818 298.013 229.018C292.013 238.018 282.013 261.518 309.513 284.018Z" fill="#FF5029"></path>
<path d="M341.013 207.018C355.013 211.418 358.513 185.185 358.513 171.518C352.513 143.518 328.013 171.518 326.013 192.018C324.413 208.418 319.013 219.185 316.513 222.518C318.013 228.518 323.213 241.618 332.013 246.018C340.813 250.418 341.68 232.185 341.013 222.518V207.018Z" fill="#F6B58B"></path>
<path d="M369 274.518V282.518H388C387.667 279.852 387.6 280.818 384 278.018C380.4 275.218 372.5 273.518 369 274.518Z" fill="#F6B58B"></path>
<path d="M464.652 282.518C465.955 278.925 451.019 272.318 447 272.518V282.518L464 282.518L464.652 282.518Z" fill="#F6B58B"></path>
<path d="M344.013 177.018C339.213 184.618 334.68 183.518 333.013 182.018C324.213 169.218 336.68 159.018 344.013 155.518C350.68 152.351 361.513 151.318 363.513 164.518C365.513 177.718 361.68 184.018 358.013 186.518C352.413 182.118 352.68 176.018 353.513 173.518C352.347 171.518 348.813 169.418 344.013 177.018Z" fill="black"></path>
<path d="M330.289 194.018C332.289 202.018 338.122 205.685 340.789 206.518V221.518C324.789 213.118 327.122 199.685 330.289 194.018Z" fill="#E89763"></path>
<path d="M536.09 283.018L572 458.018M502.175 283.018L531.601 458.018M409.905 283.018L372 458.018" stroke="#A4E7FF"></path>
<circle cx="145.5" cy="90.5" r="47.5" fill="#A4E7FF"></circle>
<path d="M182 138.5L163 127.5L182 115V138.5Z" fill="#A4E7FF"></path>
<circle cx="263.402" cy="74.4018" r="35.5" transform="rotate(-12.6272 263.402 74.4018)" fill="#A4E7FF"></circle>
<path d="M297.863 103.444L282.21 98.5264L294.024 86.3061L297.863 103.444Z" fill="#A4E7FF"></path>
<path d="M132.5 67.5C130.002 67.5 128 69.5025 128 72V108C128 109.193 128.474 110.338 129.318 111.182C130.162 112.026 131.307 112.5 132.5 112.5H141.5V108.203L146.203 103.5H132.5V99H150.703L155.203 94.5H132.5V90H159.703L164 85.7025V81L150.5 67.5H132.5ZM148.25 70.875L160.625 83.25H148.25V70.875ZM164.337 92.25C164.171 92.2463 164.005 92.2764 163.851 92.3382C163.696 92.4001 163.556 92.4925 163.438 92.61L161.142 94.905L165.845 99.585L168.14 97.3125C168.613 96.8175 168.613 96.0075 168.14 95.535L165.215 92.61C165.1 92.4946 164.963 92.4034 164.813 92.3415C164.662 92.2797 164.5 92.2486 164.337 92.25V92.25ZM159.815 96.2325L146 110.07V114.75H150.68L164.517 100.913L159.815 96.2325V96.2325Z" fill="white"></path>
<path d="M253.115 59C251.561 59 250.269 60.2922 250.269 61.8462V88.8846C250.269 90.4386 251.561 91.7308 253.115 91.7308H255.962V96L260.231 93.1538L264.5 96V85.8165C264.304 85.9297 264.094 86.0191 263.877 86.0826C263.724 86.4108 263.509 86.7056 263.242 86.9499C262.975 87.1942 262.662 87.3831 262.321 87.5057C262.02 87.604 261.704 87.6492 261.388 87.6394C260.989 87.6394 260.591 87.5882 260.231 87.4174C259.866 87.5765 259.471 87.6523 259.074 87.6394C258.755 87.6394 258.443 87.6152 258.14 87.5057C257.454 87.2559 256.894 86.7442 256.583 86.0826C256.366 86.0187 256.158 85.9294 255.962 85.8165V88.8846H253.115V61.8462H275.885V88.8846H268.769C268.392 88.8846 268.03 89.0345 267.763 89.3014C267.496 89.5683 267.346 89.9303 267.346 90.3077C267.346 90.6851 267.496 91.0471 267.763 91.314C268.03 91.5808 268.392 91.7308 268.769 91.7308H275.885C277.439 91.7308 278.731 90.4386 278.731 88.8846V61.8462C278.731 60.2922 277.439 59 275.885 59H253.115ZM257.118 66.1154C256.741 66.1507 256.393 66.3344 256.151 66.6263C255.909 66.9181 255.793 67.2941 255.828 67.6715C255.864 68.0489 256.048 68.3969 256.339 68.6388C256.631 68.8807 257.007 68.9968 257.385 68.9615H271.615C271.993 68.9615 272.355 68.8116 272.622 68.5447C272.889 68.2778 273.038 67.9159 273.038 67.5385C273.038 67.161 272.889 66.7991 272.622 66.5322C272.355 66.2653 271.993 66.1154 271.615 66.1154H257.385C257.34 66.1133 257.295 66.1133 257.251 66.1154C257.207 66.1133 257.163 66.1133 257.118 66.1154ZM257.118 71.8077C256.741 71.843 256.393 72.0268 256.151 72.3186C255.909 72.6104 255.793 72.9864 255.828 73.3638C255.864 73.7413 256.048 74.0892 256.339 74.3311C256.631 74.573 257.007 74.6891 257.385 74.6538H267.346C267.724 74.6538 268.086 74.5039 268.352 74.237C268.619 73.9702 268.769 73.6082 268.769 73.2308C268.769 72.8533 268.619 72.4914 268.352 72.2245C268.086 71.9576 267.724 71.8077 267.346 71.8077H257.385C257.34 71.8056 257.295 71.8056 257.251 71.8077C257.207 71.8056 257.163 71.8056 257.118 71.8077ZM260.231 77.0105C259.945 77.0108 259.667 77.1011 259.435 77.2687C259.204 77.4363 259.031 77.6726 258.941 77.944C258.883 77.9639 258.819 77.9668 258.764 77.9895C258.523 77.845 258.243 77.7801 257.963 77.8042C257.684 77.8282 257.419 77.9399 257.207 78.1233C256.992 78.3028 256.838 78.5446 256.766 78.8153C256.695 79.086 256.709 79.3723 256.807 79.6346C256.768 79.693 256.753 79.7513 256.717 79.8125C256.439 79.8588 256.183 79.9908 255.983 80.1901C255.784 80.3894 255.652 80.6459 255.606 80.9239C255.56 81.1946 255.6 81.4728 255.719 81.7199C255.839 81.967 256.033 82.1708 256.273 82.3029C256.283 82.3925 256.255 82.4836 256.273 82.5704C256.101 82.7796 255.997 83.0358 255.973 83.3054C255.949 83.5751 256.007 83.8456 256.139 84.0817C256.415 84.5613 256.965 84.8288 257.518 84.7492C257.59 84.816 257.662 84.8658 257.74 84.927C257.755 85.4778 258.106 85.9801 258.63 86.1722C259.148 86.3615 259.734 86.1793 260.097 85.7709C260.15 85.7738 260.177 85.8165 260.231 85.8165C260.289 85.8165 260.35 85.7738 260.409 85.7709C260.532 85.9096 260.682 86.021 260.851 86.0977C261.02 86.1744 261.202 86.2149 261.388 86.2163C261.541 86.2163 261.681 86.2263 261.832 86.1722C262.088 86.0777 262.309 85.9084 262.468 85.6864C262.626 85.4643 262.715 85.1998 262.721 84.927C262.797 84.8673 262.871 84.816 262.943 84.7492C263.213 84.7875 263.489 84.7445 263.734 84.6256C263.98 84.5067 264.185 84.3174 264.322 84.0817C264.455 83.8455 264.513 83.5746 264.489 83.3047C264.465 83.0347 264.36 82.7783 264.188 82.569C264.208 82.4836 264.176 82.3897 264.188 82.3029C264.43 82.1718 264.624 81.9682 264.744 81.7208C264.864 81.4734 264.903 81.1947 264.856 80.9239C264.81 80.6459 264.678 80.3892 264.478 80.1899C264.279 79.9906 264.022 79.8586 263.744 79.8125C263.71 79.7499 263.693 79.6944 263.655 79.6346C263.754 79.3722 263.768 79.0855 263.696 78.8144C263.625 78.5432 263.47 78.3012 263.255 78.1219C263.042 77.9385 262.777 77.8269 262.498 77.8031C262.218 77.7794 261.938 77.8446 261.698 77.9895C261.641 77.9668 261.578 77.9639 261.52 77.9454C261.431 77.6738 261.258 77.4372 261.027 77.2693C260.795 77.1014 260.517 77.0109 260.231 77.0105V77.0105ZM260.231 79.5008C261.492 79.5008 262.499 80.5084 262.499 81.7692C262.499 83.0329 261.493 84.0376 260.231 84.0376C259.932 84.0393 259.637 83.9818 259.361 83.8684C259.085 83.755 258.834 83.588 258.623 83.377C258.412 83.166 258.245 82.9153 258.132 82.6393C258.018 82.3633 257.961 82.0676 257.962 81.7692C257.962 80.507 258.97 79.5008 260.231 79.5008Z" fill="white"></path>
</svg>