<svg width="100%" height="100%" viewBox="0 0 705 543" fill="none" xmlns="http://www.w3.org/2000/svg">
<path d="M144.563 174H561.563M163.063 150H586.063M194.063 126.5H612.563M221.563 102.5H642.063" stroke="#A4E7FF"></path>
<path d="M181.263 358.839C69.7628 328.839 -41.9373 207.688 42.0627 121.688C134.229 27.3274 568.888 63.2565 641.763 183.339C721.263 314.339 607.763 495.839 539.263 485.839C470.763 475.839 514.763 432.839 473.763 387.839C432.763 342.839 292.763 388.839 181.263 358.839Z" fill="#A4E7FF" fill-opacity="0.3"></path>
<path d="M97.6041 354L60.5626 528M168.183 354L140.152 528M463.513 354L507.563 528M371.41 354L409.953 528" stroke="black"></path>
<path d="M530.697 302H627.563L599.384 402H509.563L530.697 302Z" fill="#7DDDFF"></path>
<path d="M620.336 417.496H540.468L558.143 405.713H620.336C625.574 410.95 622.518 415.751 620.336 417.496Z" fill="#A4E7FF"></path>
<path d="M636.4 309.425C638.715 350.88 615.753 388.415 603.983 402H593.563C602.362 379.176 616.525 326.892 622.507 303.602C632.232 298.944 635.821 305.543 636.4 309.425Z" fill="#A4E7FF"></path>
<path d="M579.366 417.496H464.8L482.476 405.713H579.366C584.603 410.95 581.548 415.751 579.366 417.496Z" fill="#7DDDFF"></path>
<path d="M616.681 417.496L636.321 528.789M593.768 417.496L607.516 528.789M475.063 417.496L459.563 528.789" stroke="#A4E7FF"></path>
<path d="M300.063 227.5L379.063 215V319H300.063V227.5Z" fill="#A4E7FF"></path>
<rect x="377.563" y="215" width="4" height="104" fill="#7DDDFF"></rect>
<path d="M297.063 347.5L327.063 279H350.563L320.563 347.5H297.063Z" fill="#7DDDFF"></path>
<rect x="290.563" y="346" width="67" height="3" fill="#7DDDFF"></rect>
<rect x="76.5626" y="349" width="407" height="5" fill="black"></rect>
<path d="M144.563 198.5L238.563 131L273.063 167.5L291.563 152L330.063 188.5L403.063 100L467.063 176.5L508.063 141" stroke="#7DDDFF"></path>
<circle r="47.5" transform="matrix(-1 0 0 1 571.063 158.5)" fill="#A4E7FF"></circle>
<path d="M534.563 206.5L553.563 195.5L534.563 183V206.5Z" fill="#A4E7FF"></path>
<circle cx="335.141" cy="73.5125" r="47.5" transform="rotate(18.1877 335.141 73.5125)" fill="#A4E7FF"></circle>
<path d="M354.835 130.507L340.218 114.126L362.17 108.181L354.835 130.507Z" fill="#A4E7FF"></path>
<circle cx="222.027" cy="175.504" r="35.5" transform="rotate(-11.0232 222.027 175.504)" fill="#A4E7FF"></circle>
<path d="M255.662 205.5L240.152 200.145L252.304 188.26L255.662 205.5Z" fill="#A4E7FF"></path>
<circle cx="472.063" cy="87.5001" r="35.5" fill="#A4E7FF"></circle>
<path d="M499.342 123.374L485.142 115.153L499.342 105.811V123.374Z" fill="#A4E7FF"></path>
<circle cx="407.063" cy="184.5" r="35.5" fill="#A4E7FF"></circle>
<path d="M434.342 220.374L420.142 212.153L434.342 202.811V220.374Z" fill="#A4E7FF"></path>
<circle cx="49.9448" cy="251.542" r="35.5" transform="rotate(-39.1684 49.9448 251.542)" fill="#A4E7FF"></circle>
<path d="M93.7518 262.125L77.5502 264.72L82.6589 248.509L93.7518 262.125Z" fill="#A4E7FF"></path>
<circle cx="91.9647" cy="42.4019" r="35.5" transform="rotate(-12.6272 91.9647 42.4019)" fill="#A4E7FF"></circle>
<path d="M126.426 71.4445L110.772 66.5265L122.587 54.3062L126.426 71.4445Z" fill="#A4E7FF"></path>
<circle cx="210.746" cy="61.0279" r="35.5" transform="rotate(24.5084 210.746 61.0279)" fill="#A4E7FF"></circle>
<path d="M220.685 104.985L211.175 91.6146L227.971 89.0047L220.685 104.985Z" fill="#A4E7FF"></path>
<path d="M574.188 140.375C566.113 140.375 559.738 146.75 559.313 154.613L555.275 159.925C554.85 160.563 555.275 161.625 556.125 161.625H559.313V168C559.313 170.338 561.225 172.25 563.563 172.25H565.688V178.625H580.563V168.638C585.663 166.3 589.063 161.2 589.063 155.25C589.063 146.963 582.475 140.375 574.188 140.375ZM578.438 153.125L571.85 165.875L573.125 157.375H568.875L573.125 146.75H578.438L575.25 153.125H578.438Z" fill="white"></path>
<g clip-path="url(#clip0)">
<path d="M485.406 97.8751L481.438 101.844C480.771 102.573 479.792 102.953 478.5 102.984C477.209 103.016 475.979 102.807 474.813 102.359C473.646 101.912 472.761 101.386 472.156 100.781L459.969 88.5939C459.698 88.323 459.563 87.9897 459.563 87.5939C459.563 87.198 459.698 86.8543 459.969 86.5626L470.125 76.4064C470.417 76.1147 470.761 75.9689 471.156 75.9689C471.552 75.9689 471.886 76.1147 472.156 76.4064L484.344 88.5939C484.948 89.198 485.474 90.0835 485.922 91.2501C486.37 92.4168 486.578 93.646 486.547 94.9376C486.516 96.2293 486.136 97.2085 485.406 97.8751ZM454.563 80.5939L464.156 71.0001L468.969 75.8126L459.375 85.4064L454.563 80.5939ZM463.688 76.2814C463.813 76.4064 463.969 76.4689 464.156 76.4689C464.344 76.4689 464.5 76.4064 464.625 76.2814L465.594 75.3126C465.74 75.1876 465.813 75.0314 465.813 74.8439C465.813 74.6564 465.74 74.4897 465.594 74.3439L464.625 73.4064C464.5 73.2605 464.344 73.1876 464.156 73.1876C463.969 73.1876 463.813 73.2605 463.688 73.4064L462.719 74.3439C462.594 74.4897 462.531 74.6564 462.531 74.8439C462.531 75.0314 462.594 75.1876 462.719 75.3126L463.688 76.2814ZM457.906 82.0314C458.052 82.1772 458.219 82.2501 458.406 82.2501C458.594 82.2501 458.75 82.1772 458.875 82.0314L459.844 81.0626C459.969 80.9376 460.031 80.7814 460.031 80.5939C460.031 80.4064 459.969 80.2501 459.844 80.1251L458.875 79.1564C458.75 79.0314 458.594 78.9689 458.406 78.9689C458.219 78.9689 458.052 79.0314 457.906 79.1564L456.969 80.1251C456.823 80.2501 456.75 80.4064 456.75 80.5939C456.75 80.7814 456.823 80.9376 456.969 81.0626L457.906 82.0314Z" fill="white"></path>
</g>
<path d="M231.563 162.125H214.125C213.529 162.126 212.957 162.363 212.535 162.785C212.113 163.207 211.876 163.779 211.875 164.375V193.625C211.876 194.222 212.113 194.793 212.535 195.215C212.957 195.637 213.529 195.874 214.125 195.875H231.563C232.159 195.874 232.731 195.637 233.153 195.215C233.575 194.793 233.812 194.222 233.813 193.625V164.375C233.812 163.779 233.575 163.207 233.153 162.785C232.731 162.363 232.159 162.126 231.563 162.125V162.125ZM231.563 193.625H214.125V164.375H231.563L231.564 193.625H231.563Z" fill="white"></path>
<path d="M219.75 166.625H226.5V168.875H219.75V166.625Z" fill="white"></path>
<path d="M222 188.563H224.25V190.813H222V188.563Z" fill="white"></path>
<path d="M81.7554 26.3976C85.5054 26.3976 88.5054 29.3976 88.5054 33.1476C88.5054 34.4676 88.1304 35.6976 87.4704 36.7476L87.6204 36.8976H95.3904L95.5404 36.7476C94.8804 35.6976 94.5054 34.4676 94.5054 33.1476C94.5054 29.3976 97.5054 26.3976 101.255 26.3976C105.005 26.3976 108.005 29.3976 108.005 33.1476C108.005 36.8976 105.005 39.8976 101.255 39.8976C99.9354 39.8976 98.7054 39.5226 97.6554 38.8626L96.0054 40.5126V45.2826L97.6554 46.9326C98.7054 46.2726 99.9354 45.8976 101.255 45.8976C105.005 45.8976 108.005 48.8976 108.005 52.6476C108.005 56.3976 105.005 59.3976 101.255 59.3976C97.5054 59.3976 94.5054 56.3976 94.5054 52.6476C94.5054 51.3276 94.8804 50.0976 95.5404 49.0476L95.3904 48.8976H87.6204L87.4704 49.0476C88.1304 50.0976 88.5054 51.3276 88.5054 52.6476C88.5054 56.3976 85.5054 59.3976 81.7554 59.3976C78.0054 59.3976 75.0054 56.3976 75.0054 52.6476C75.0054 48.8976 78.0054 45.8976 81.7554 45.8976C83.0754 45.8976 84.3054 46.2726 85.3554 46.9326L87.0054 45.2826V40.5126L85.3554 38.8626C84.3054 39.5226 83.0754 39.8976 81.7554 39.8976C78.0054 39.8976 75.0054 36.8976 75.0054 33.1476C75.0054 29.3976 78.0054 26.3976 81.7554 26.3976ZM81.7554 29.3976C80.7608 29.3976 79.807 29.7927 79.1037 30.4959C78.4005 31.1992 78.0054 32.153 78.0054 33.1476C78.0054 34.1421 78.4005 35.096 79.1037 35.7992C79.807 36.5025 80.7608 36.8976 81.7554 36.8976C82.7499 36.8976 83.7038 36.5025 84.407 35.7992C85.1103 35.096 85.5054 34.1421 85.5054 33.1476C85.5054 32.153 85.1103 31.1992 84.407 30.4959C83.7038 29.7927 82.7499 29.3976 81.7554 29.3976ZM81.7554 48.8976C80.7608 48.8976 79.807 49.2927 79.1037 49.9959C78.4005 50.6992 78.0054 51.653 78.0054 52.6476C78.0054 53.6421 78.4005 54.596 79.1037 55.2992C79.807 56.0025 80.7608 56.3976 81.7554 56.3976C82.7499 56.3976 83.7038 56.0025 84.407 55.2992C85.1103 54.596 85.5054 53.6421 85.5054 52.6476C85.5054 51.653 85.1103 50.6992 84.407 49.9959C83.7038 49.2927 82.7499 48.8976 81.7554 48.8976ZM101.255 29.3976C100.261 29.3976 99.307 29.7927 98.6037 30.4959C97.9005 31.1992 97.5054 32.153 97.5054 33.1476C97.5054 34.1421 97.9005 35.096 98.6037 35.7992C99.307 36.5025 100.261 36.8976 101.255 36.8976C102.25 36.8976 103.204 36.5025 103.907 35.7992C104.61 35.096 105.005 34.1421 105.005 33.1476C105.005 32.153 104.61 31.1992 103.907 30.4959C103.204 29.7927 102.25 29.3976 101.255 29.3976ZM101.255 48.8976C100.261 48.8976 99.307 49.2927 98.6037 49.9959C97.9005 50.6992 97.5054 51.653 97.5054 52.6476C97.5054 53.6421 97.9005 54.596 98.6037 55.2992C99.307 56.0025 100.261 56.3976 101.255 56.3976C102.25 56.3976 103.204 56.0025 103.907 55.2992C104.61 54.596 105.005 53.6421 105.005 52.6476C105.005 51.653 104.61 50.6992 103.907 49.9959C103.204 49.2927 102.25 48.8976 101.255 48.8976ZM79.3704 50.7726L81.0654 51.7626C81.2604 51.6126 81.5004 51.5226 81.7554 51.5226C82.0537 51.5226 82.3399 51.6411 82.5509 51.8521C82.7618 52.0631 82.8804 52.3492 82.8804 52.6476L82.8654 52.7976L84.5604 53.7726L84.1404 54.5226L82.4454 53.5326C82.2504 53.6826 82.0104 53.7726 81.7554 53.7726C81.457 53.7726 81.1709 53.6541 80.9599 53.4431C80.7489 53.2321 80.6304 52.946 80.6304 52.6476L80.6454 52.4976L78.9504 51.5226L79.3704 50.7726ZM78.9504 34.2726L80.6454 33.2976L80.6304 33.1476C80.6304 32.8492 80.7489 32.5631 80.9599 32.3521C81.1709 32.1411 81.457 32.0226 81.7554 32.0226C82.0104 32.0226 82.2504 32.1126 82.4454 32.2626L84.1404 31.2726L84.5604 32.0226L82.8654 32.9976L82.8804 33.1476C82.8804 33.446 82.7618 33.7321 82.5509 33.9431C82.3399 34.1541 82.0537 34.2726 81.7554 34.2726C81.5004 34.2726 81.2604 34.1826 81.0654 34.0326L79.3704 35.0226L78.9504 34.2726ZM98.8704 31.2726L100.565 32.2626C100.76 32.1126 101 32.0226 101.255 32.0226C101.554 32.0226 101.84 32.1411 102.051 32.3521C102.262 32.5631 102.38 32.8492 102.38 33.1476L102.365 33.2976L104.06 34.2726L103.64 35.0226L101.945 34.0326C101.75 34.1826 101.51 34.2726 101.255 34.2726C100.957 34.2726 100.671 34.1541 100.46 33.9431C100.249 33.7321 100.13 33.446 100.13 33.1476L100.145 32.9976L98.4504 32.0226L98.8704 31.2726ZM98.4504 53.7726L100.13 52.6476C100.13 52.3492 100.249 52.0631 100.46 51.8521C100.671 51.6411 100.957 51.5226 101.255 51.5226C101.51 51.5226 101.75 51.6126 101.945 51.7626L103.64 50.7726L104.06 51.5226L102.38 52.6476C102.38 52.946 102.262 53.2321 102.051 53.4431C101.84 53.6541 101.554 53.7726 101.255 53.7726C101 53.7726 100.76 53.6826 100.565 53.5326L98.8704 54.5226L98.4504 53.7726Z" fill="white"></path>
<path d="M419.063 181.25C419.063 179.572 417.873 178.168 416.296 177.831C416.926 176.779 417.313 175.563 417.313 174.25C417.313 170.39 414.173 167.25 410.313 167.25C407.658 167.25 405.376 168.75 404.188 170.932C402.999 168.75 400.717 167.25 398.063 167.25C394.202 167.25 391.063 170.39 391.063 174.25C391.063 175.829 391.609 177.272 392.492 178.443C392.051 178.766 391.691 179.188 391.443 179.676C391.194 180.164 391.064 180.703 391.063 181.25V195.25C391.063 197.18 392.632 198.75 394.563 198.75H415.563C417.493 198.75 419.063 197.18 419.063 195.25V190.634L426.063 194.134V181.884L419.063 185.384V181.25ZM410.313 170.75C412.243 170.75 413.813 172.32 413.813 174.25C413.813 176.18 412.243 177.75 410.313 177.75C408.382 177.75 406.813 176.18 406.813 174.25C406.813 172.32 408.382 170.75 410.313 170.75ZM398.063 170.75C399.993 170.75 401.563 172.32 401.563 174.25C401.563 176.18 399.993 177.75 398.063 177.75C396.132 177.75 394.563 176.18 394.563 174.25C394.563 172.32 396.132 170.75 398.063 170.75ZM394.563 195.25V181.25H415.563L415.566 195.25H394.563Z" fill="white"></path>
<g clip-path="url(#clip1)">
<path d="M55.0274 235C54.7581 235.011 54.4983 235.059 54.2278 235.127L35.9281 239.585C33.7635 240.115 32.4093 242.299 32.941 244.465L35.5068 254.941C35.6623 255.565 35.965 256.142 36.3896 256.625C36.8143 257.108 37.3484 257.482 37.9474 257.716V255.192C37.9474 251.481 40.9668 248.462 44.6781 248.462H61.6316L59.1076 238.071C58.8843 237.167 58.3564 236.369 57.6129 235.809C56.8694 235.25 55.9558 234.964 55.026 235H55.0274ZM56.667 240.806L57.7614 245.391L53.2181 246.484L52.082 241.941L56.667 240.806V240.806ZM44.6781 251.154C42.4489 251.154 40.6397 252.963 40.6397 255.192V265.962C40.6397 268.191 42.4489 270 44.6781 270H63.5243C65.7535 270 67.5628 268.191 67.5628 265.962V255.192C67.5628 252.963 65.7535 251.154 63.5243 251.154H44.6781ZM44.6781 253.3H63.5243C64.5622 253.3 65.417 254.155 65.417 255.192V256.539H42.7855V255.192C42.7855 254.155 43.6403 253.3 44.6781 253.3ZM42.7855 260.577H65.417V265.962C65.417 267 64.5622 267.854 63.5243 267.854H44.6781C44.177 267.851 43.6973 267.651 43.3429 267.297C42.9886 266.942 42.7883 266.463 42.7855 265.962V260.577Z" fill="white"></path>
</g>
<path d="M208.544 43.2189C210.006 43.2376 211.394 44.1189 211.938 45.5626L221.313 67.9689C221.481 68.4564 221.575 69.0001 221.556 69.4689C221.535 70.1931 221.307 70.896 220.898 71.4942C220.489 72.0924 219.917 72.5608 219.25 72.8439L205.431 78.5626C204.944 78.7876 204.438 78.8439 203.95 78.8439C203.217 78.8277 202.505 78.597 201.902 78.1805C201.299 77.7639 200.831 77.1797 200.556 76.5001L191.256 54.0939C190.469 52.2001 191.388 50.0064 193.3 49.2189L207.1 43.5001C207.569 43.3314 208.056 43.2189 208.544 43.2189V43.2189ZM215.069 43.2189H217.788C218.782 43.2189 219.736 43.614 220.439 44.3172C221.143 45.0205 221.538 45.9743 221.538 46.9689V58.8751L215.069 43.2189V43.2189ZM225.306 46.1064L227.819 47.1751C228.274 47.3603 228.688 47.6335 229.037 47.9789C229.386 48.3244 229.663 48.7354 229.853 49.1883C230.043 49.6412 230.142 50.1271 230.143 50.6182C230.145 51.1093 230.05 51.5959 229.863 52.0501L225.306 63.0376V46.1064V46.1064ZM208.544 46.9126L194.688 52.6689L204.006 75.1876L217.881 69.4501L208.544 46.9126V46.9126ZM203.781 55.0126L209.838 59.5314L209.013 67.0501L202.956 62.5126L203.781 55.0126Z" fill="white"></path>
<g clip-path="url(#clip2)">
<path d="M106.642 148.865C111.493 148.865 115.426 146.657 115.426 143.933C115.426 141.208 111.493 139 106.642 139C101.79 139 97.8569 141.208 97.8569 143.933C97.8569 146.657 101.79 148.865 106.642 148.865Z" fill="white"></path>
<path fill-rule="evenodd" clip-rule="evenodd" d="M106.773 151.703C100.49 151.703 97.9884 149.1 97.9884 147.593V154.05C97.9884 156.775 101.922 158.98 106.773 158.98C111.63 158.98 115.563 156.775 115.563 154.05V147.748C115.563 149.258 113.059 151.703 106.773 151.703V151.703Z" fill="white"></path>
<path fill-rule="evenodd" clip-rule="evenodd" d="M106.773 161.68C101.153 161.68 97.9884 159.178 97.9884 157.67V164.068C97.9884 166.793 101.922 169 106.773 169C111.63 169 115.563 166.793 115.563 164.068V157.593C115.563 159.1 112.396 161.68 106.773 161.68V161.68Z" fill="white"></path>
<path d="M85.0505 138.865C90.5503 138.865 95.0088 136.657 95.0088 133.933C95.0088 131.208 90.5503 129 85.0505 129C79.5506 129 75.0922 131.208 75.0922 133.933C75.0922 136.657 79.5506 138.865 85.0505 138.865Z" fill="white"></path>
<path fill-rule="evenodd" clip-rule="evenodd" d="M85.3666 141.703C78.2463 141.703 75.4083 139.1 75.4083 137.593V144.05C75.4083 146.775 79.8677 148.98 85.3666 148.98C90.8706 148.98 95.3274 146.775 95.3274 144.05V137.748C95.3274 139.258 92.4869 141.703 85.3666 141.703V141.703Z" fill="white"></path>
<path fill-rule="evenodd" clip-rule="evenodd" d="M85.3666 151.68C78.995 151.68 75.4083 149.178 75.4083 147.67V154.068C75.4083 156.793 79.8677 159 85.3666 159C90.8706 159 95.3274 156.793 95.3274 154.068V147.593C95.3274 149.1 91.7357 151.68 85.3666 151.68V151.68Z" fill="white"></path>
<path fill-rule="evenodd" clip-rule="evenodd" d="M85.3666 161.68C78.995 161.68 75.4083 159.178 75.4083 157.67V164.068C75.4083 166.793 79.8677 169 85.3666 169C90.8706 169 95.3274 166.793 95.3274 164.068V157.593C95.3274 159.1 91.7357 161.68 85.3666 161.68V161.68Z" fill="white"></path>
</g>
<g clip-path="url(#clip3)">
<path d="M334.956 51.3414C338.466 51.3414 341.807 52.1476 344.803 53.5857C345.274 53.7976 345.747 54.0507 346.215 54.3057L344.16 56.1245L341.08 52.952L335.77 57.6076L332.644 54.2626L322.881 62.9401L329.132 69.7557L326.691 71.8707L332.86 78.6864L330.418 80.8014L339.238 90.4951L344.46 85.7532L349 90.8345C348.1 91.5114 347.115 92.1901 346.047 92.7826C342.671 94.6718 338.867 95.6622 334.999 95.6589C322.624 95.657 312.563 85.7101 312.563 73.4814C312.52 61.3314 322.581 51.3414 334.956 51.3414ZM330.844 72.1276L336.197 67.3857L340.993 72.677L335.64 77.4189L330.844 72.1276ZM334.656 81.2701L339.966 76.4889L344.803 81.7782L339.45 86.5201L334.656 81.2701ZM327.038 63.1126L332.389 58.3707L337.183 63.662L331.832 68.402L327.038 63.1126ZM336.84 60.572L340.823 57.017L344.421 60.9526L340.438 64.5507L336.84 60.572ZM343.95 76.8676L347.931 73.3126L351.527 77.2895L347.545 80.8482L343.95 76.8676ZM347.46 84.8682L351.443 81.3114L355.037 85.2489L351.057 88.8451L347.46 84.8682ZM349.088 66.5814L351.741 64.2114L354.139 66.8364L351.484 69.2064L349.088 66.5814ZM345.662 58.7514L348.317 56.3401L350.717 59.0064L348.058 61.3764L345.662 58.7514ZM352.468 74.4132L355.123 72.0432L357.565 74.6682L354.868 77.0382L352.468 74.4132ZM340.525 68.5295L344.507 64.9745L348.103 68.9101L344.121 72.467L340.525 68.5295Z" fill="white"></path>
</g>
<rect x="130.563" y="337" width="133" height="12" fill="#A4E7FF"></rect>
<path d="M210.563 313C207.363 299 197.563 292.833 193.063 291.5C214.263 291.5 222.229 305.833 223.563 313H210.563Z" fill="#7DDDFF"></path>
<path d="M222.563 306C228.163 289.6 239.896 282.5 245.063 281C236.663 294.6 235.229 309 235.563 314.5L222.563 322.5V306Z" fill="#7DDDFF"></path>
<path d="M219.563 349C216.363 319.4 193.563 308 182.563 306C194.563 297.2 210.563 305.334 216.063 309C216.063 300.2 214.063 288.333 214.063 285C229.663 296.6 229.896 311.167 228.063 317C235.547 295.8 256.848 294.167 266.563 296C251.763 297.6 243.063 310.667 240.563 317C250.563 313 259.063 315.334 262.063 317C235.263 321.4 228.229 340.167 228.063 349H219.563Z" fill="#A4E7FF"></path>
<path d="M116.706 235.5C115.539 248.167 121.006 278.5 152.206 298.5C152.539 284.5 145.906 252.3 116.706 235.5Z" fill="#A4E7FF"></path>
<path d="M153.706 215C146.206 228.5 135.706 263.8 153.706 297C158.872 283.667 166.106 248.6 153.706 215Z" fill="#7DDDFF"></path>
<path d="M183.206 249C184.372 260 179.806 285.6 152.206 300C151.039 288.333 155.606 261.8 183.206 249Z" fill="#A4E7FF"></path>
<rect x="150.563" y="295" width="4" height="49" fill="#A4E7FF"></rect>
<path d="M442.563 250.147C386.549 230.473 382.203 307.852 387.032 349H392.343C381.527 250.629 418.741 244.682 438.7 254.005L442.563 250.147Z" fill="#7DDDFF"></path>
<path d="M436.838 261.828C438.816 276.884 450.853 282.216 456.624 283L470.474 272.179C471.463 261.358 464.043 249.124 456.624 247.242C449.204 245.36 434.364 243.008 436.838 261.828Z" fill="#A4E7FF"></path>
<path d="M450.063 363C471.263 362.2 516.396 364.665 533.563 371.499L542.063 367.999L603.063 374.499C601.863 402.099 579.563 407.332 568.563 405.999H473.063C467.063 443.199 427.396 490.667 405.063 512L395.563 515.499C409.563 463.099 432.396 419.999 442.063 404.999C428.463 422.999 373.396 436.832 347.563 441.499L342.063 432.999C366.563 409.999 428.863 363.8 450.063 363Z" fill="black"></path>
<path fill-rule="evenodd" clip-rule="evenodd" d="M613.563 262.5C620.563 262.5 633.563 264.1 645.563 270.5C660.563 278.5 733.063 344 692.063 364C659.263 380 622.063 369.167 609.563 362.5C608.063 361.7 607.563 363.5 607.563 367C607.563 386.007 592.063 391 563.063 383C534.063 375 520.762 372.817 530.563 362.5C540.063 352.5 544.063 328.271 540.563 323.001C528.563 334.501 503.063 348.5 460.563 349H411.563V341C417.789 338.871 427.481 335.859 437.922 332.615C460.181 325.697 485.84 317.723 488.563 315C493.563 310 529.563 278.5 548.063 270.5C568.595 261.622 594.858 262.151 608.499 262.426C610.468 262.466 612.175 262.5 613.563 262.5ZM613.063 350C620.896 350.834 639.263 351.4 650.063 347C663.563 341.5 648.563 331.5 638.063 328.5C637.792 328.423 637.526 328.346 637.265 328.271C627.427 325.441 624.753 324.672 613.063 350Z" fill="#FF5029"></path>
<path d="M544.063 304.5C540.063 307 506.563 326.5 496.563 331.5C472.45 343.557 438.489 345 411.563 345V349C426.063 349.833 461.763 350.5 488.563 346.5C515.363 342.5 534.396 329.167 540.563 323C541.563 324 542.063 329 542.063 330.5C542.063 332 562.063 336 570.063 331.5C578.063 327 553.563 328.5 547.563 319.5C541.563 310.5 548.063 302 544.063 304.5Z" fill="#FC3205"></path>
<path d="M567.563 246.449C563.563 238.449 565.563 210.393 569.563 205.949C575.563 199.282 585.763 191.549 594.563 197.949C603.363 204.349 603.896 234.615 603.063 248.949L601.063 264.5C597.396 268.667 592.863 274.2 586.063 275C579.263 275.8 579.896 266.333 581.063 261.5L583.563 250.949C580.896 252.115 571.563 254.449 567.563 246.449Z" fill="#F6B58B"></path>
<path d="M645.563 308L655.563 343.5C642.763 356.3 621.896 353.167 613.063 350H608.063L599.563 327.5L645.563 308Z" fill="#7DDDFF"></path>
<path d="M642.563 318.5L608.563 333L609.563 335.5L643.563 321L642.563 318.5Z" fill="#A4E7FF"></path>
<path d="M644.563 326.5L611.563 340.5L612.563 343L645.563 329L644.563 326.5Z" fill="#A4E7FF"></path>
<path d="M647.063 333.5L614.563 347.5L615.563 350L648.063 336L647.063 333.5Z" fill="#A4E7FF"></path>
<path d="M621.563 387.5L612.563 363.5C625.763 371.5 649.396 372.5 659.563 372L621.563 387.5Z" fill="#7DDDFF"></path>
<path d="M321.369 449.608C325.47 448.469 338.527 435.642 344.543 429.371C354.211 426.688 360.288 429.733 362.119 431.592C361.157 442.902 355.884 448.441 353.368 449.797L338.39 463.969L333.874 460.489L345.028 448.168C344.215 445.238 330.475 453.522 323.707 458.03C319.327 455.039 311.226 448.873 313.862 448.141C316.499 447.41 319.965 448.814 321.369 449.608Z" fill="#FF5029"></path>
<path d="M385.907 524.415C389.098 521.958 395.985 506.069 399.03 498.431C406.552 492.641 412.964 493.15 415.23 494.129C418.408 504.388 415.755 511.119 414.031 513.203L408.095 528.797L402.898 528.79L406.139 514.74C404.384 512.46 396.576 522.431 392.245 528.791C388.534 529.992 376.774 529.053 378.825 527.474C380.877 525.895 384.394 524.218 385.907 524.415Z" fill="#FF5029"></path>
<path d="M687.563 291.449C697.563 306.249 683.396 310.282 675.063 310.449C669.896 308.115 657.463 304.549 649.063 308.949C638.563 314.449 622.563 310.449 622.563 297.449C622.563 284.449 622.563 275.949 607.063 267.949C591.563 259.949 590.563 249.449 592.563 230.949C594.163 216.149 588.396 210.782 584.563 207.949C580.896 211.616 570.163 215.949 560.563 215.949C548.563 215.949 555.063 190.949 583.063 183.949C611.063 176.949 611.563 181.949 622.563 203.949C633.563 225.949 634.563 236.949 645.563 259.949C656.563 282.949 675.063 272.949 687.563 291.449Z" fill="black"></path>
<path d="M588.063 248.949L583.563 250.949L582.563 257.949C586.563 256.749 587.229 252.116 588.063 248.949Z" fill="#E89763"></path>
<path d="M610.063 362.5L613.563 350C610.763 345.2 607.063 343.333 605.563 343C602.396 343.167 596.563 345.2 598.563 352C600.563 358.8 607.063 361.833 610.063 362.5Z" fill="#F6B58B"></path>
<path d="M400.063 341C404.463 338.6 409.563 340 411.563 341V349H397.063C396.229 347.333 395.663 343.4 400.063 341Z" fill="#F6B58B"></path>
<defs>
<clipPath id="clip0">
<rect x="454.563" y="71.0001" width="32" height="32" fill="white"></rect>
</clipPath>
<clipPath id="clip1">
<rect x="32.5627" y="235" width="35" height="35" fill="white"></rect>
</clipPath>
<clipPath id="clip2">
<rect x="72.5627" y="129" width="43" height="40" fill="white"></rect>
</clipPath>
<clipPath id="clip3">
<rect x="312.563" y="51.0001" width="45" height="45" fill="white"></rect>
</clipPath>
</defs>
</svg>