<svg width="100%" height="100%" viewBox="0 0 667 487" fill="none" xmlns="http://www.w3.org/2000/svg">
<path d="M594.5 263C590.5 371 593 462.5 439 462.5H111C59 462.5 42.7435 412.768 49.7957 381.5C61 284.5 168.846 253.776 240 280.5C346.5 320.5 327 422.5 393.5 413C460 403.5 454.5 335.5 350 299.5C245.5 263.5 225 181.5 240 85.0002C255 -11.4998 403 -7.99975 539.5 13.0002C676 34.0002 598.5 155 594.5 263Z" fill="#9BE5FF" fill-opacity="0.3"></path>
<rect x="-0.5" y="0.5" width="147" height="228" transform="matrix(-1 0 0 1 469.5 41)" stroke="#8DE1FF"></rect>
<rect width="61" height="12" transform="matrix(-1 0 0 1 456.5 84)" fill="#9BE5FF"></rect>
<rect width="118" height="12" transform="matrix(-1 0 0 1 456.5 101)" fill="#9BE5FF"></rect>
<rect width="118" height="12" transform="matrix(-1 0 0 1 456.5 118)" fill="#9BE5FF"></rect>
<rect width="118" height="12" transform="matrix(-1 0 0 1 456.5 135)" fill="#9BE5FF"></rect>
<rect width="118" height="12" transform="matrix(-1 0 0 1 456.5 152)" fill="#9BE5FF"></rect>
<rect width="118" height="12" transform="matrix(-1 0 0 1 456.5 169)" fill="#9BE5FF"></rect>
<rect width="118" height="12" transform="matrix(-1 0 0 1 456.5 186)" fill="#9BE5FF"></rect>
<rect width="118" height="12" transform="matrix(-1 0 0 1 456.5 203)" fill="#9BE5FF"></rect>
<rect width="118" height="12" transform="matrix(-1 0 0 1 456.5 220)" fill="#9BE5FF"></rect>
<rect width="118" height="12" transform="matrix(-1 0 0 1 456.5 237)" fill="#9BE5FF"></rect>
<path d="M371 59.5002C359 47.1002 328.667 72.3336 315 86.5002L324.5 111.5L338.5 98.5C339.5 110.5 343 111.5 356 104C369 96.5 386 75.0002 371 59.5002Z" fill="#F6B58B"></path>
<path d="M345.5 106C348.7 106.8 358.5 101.333 363 98.5C356.5 104.5 348.5 109.5 343.5 109C339.5 108.6 337.833 101.667 338 98.5L324.5 112L321.5 103.5L336.5 86.5L345.5 92.5C345.167 93.5 344.3 95.9 343.5 97.5C342.5 99.5 341.5 105 345.5 106Z" fill="#E89763"></path>
<path d="M238.124 334.736C224.958 271.551 216.169 239.591 217.666 230H274.052C278.542 243.811 278.567 256.174 284.031 317.472C289.52 379.047 295.342 448.679 299.5 474H289.021L274.052 419.33L280.538 474H270.06C263.24 452.899 253.593 408.972 238.124 334.736Z" fill="black"></path>
<path d="M235.223 139.24C221.348 167.441 212.729 201.961 217.5 227.501C220.5 241.501 264.5 247.001 273.5 240.501C282.5 234.001 283 180.501 319 199.001C318.667 225.834 328.8 275.601 372 260.001C378.5 254.667 394.1 235.001 404.5 199.001L396 190.501C394.167 197.667 369 208.5 364.5 208.5C355.5 208.5 349.167 179.667 347 163.501C344.5 143.771 336.7 102.95 325.5 97.5006C296.594 60.4999 289 77 212 83.5005C179.143 86.2744 191.5 112.5 212 126.501C219.793 131.823 227.787 135.941 235.223 139.24Z" fill="#FF5029"></path>
<path d="M219.5 104C233.5 109.2 256.333 106.167 266 104C250.4 113.6 239.5 131 236 138.5C230.5 137.5 215.4 131.4 199 115C182.6 98.6 192.167 89.1667 199 86.5C191.5 99.5 202 97.5 219.5 104Z" fill="#FC3205"></path>
<path d="M335.5 255.5C321.9 243.5 318.167 211.5 318 197C316.752 180.5 326.5 189.5 330 213.5C333.5 237.5 345 245.51 359 247C377.8 249 386.5 238.166 388.5 232.5C383 268 352.5 270.5 335.5 255.5Z" fill="#FC3205"></path>
<path d="M368 88.9998C358.5 80.4998 361.5 91.4998 344 92.9998C335.708 93.7105 333.5 81 325.027 88.9998C320.129 85.3474 317.526 79.3927 317 71.4998C316 56.4998 330.153 56.4998 337.5 56.4998C339.667 48.8331 346.4 36.2998 356 47.4998C368 61.4998 368 46.4998 382 56.4998C396 66.4998 387.5 71.4998 388.5 88.9998C389.5 106.5 377.5 97.4998 368 88.9998Z" fill="black"></path>
<path fill-rule="evenodd" clip-rule="evenodd" d="M377.5 161.5C377.5 168.956 383.544 175 391 175C398.456 175 404.5 168.956 404.5 161.5C404.5 154.044 398.456 148 391 148C383.544 148 377.5 154.044 377.5 161.5ZM376.5 161.5C376.5 169.508 382.992 176 391 176C392.442 176 393.836 175.789 395.15 175.397L410.271 202.113C410.48 202.519 410.916 203.031 411.576 203.304C412.267 203.59 413.141 203.586 414.142 203.039C415.121 202.504 415.645 201.828 415.868 201.158C416.087 200.503 416.004 199.892 415.834 199.502L415.823 199.477L415.81 199.454L400.447 172.501C403.541 169.841 405.5 165.9 405.5 161.5C405.5 153.492 399.008 147 391 147C382.992 147 376.5 153.492 376.5 161.5ZM414.926 199.923L399.728 173.258L396.185 175.195L411.146 201.629L411.152 201.639L411.157 201.649C411.277 201.885 411.552 202.212 411.958 202.38C412.338 202.537 412.896 202.581 413.663 202.162C414.452 201.73 414.787 201.239 414.92 200.842C415.051 200.447 414.997 200.103 414.926 199.923Z" fill="black"></path>
<path d="M402.5 177.5C396.9 181.5 395.5 188.5 395.5 191.5L404 198.5C405.903 195.963 408.141 192.286 409.694 189C411.5 191.5 413.256 192.841 413.5 191.5C414.5 187.667 412.1 173.5 402.5 177.5Z" fill="#F6B58B"></path>
<path d="M308 480C302.4 480 300 475.667 299.5 473.5H289.5V487H318C319.5 482 315 480 308 480Z" fill="#FF5029"></path>
<path d="M288.212 480C282.612 480 280.212 475.667 279.712 473.5H269.712V487H298.212C299.712 482 295.212 480 288.212 480Z" fill="#FF5029"></path>
<path d="M209.5 414H-1.2815e-06" stroke="#7DDDFF"></path>
<path d="M209.5 385H-1.2815e-06" stroke="#7DDDFF"></path>
<path d="M209.5 352H-1.2815e-06" stroke="#7DDDFF"></path>
<path d="M209.5 319H-1.2815e-06" stroke="#7DDDFF"></path>
<path d="M666.5 376H457" stroke="#7DDDFF"></path>
<path d="M666.5 347H457" stroke="#7DDDFF"></path>
<path d="M666.5 314H457" stroke="#7DDDFF"></path>
<path d="M666.5 281H457" stroke="#7DDDFF"></path>
</svg>