<svg width="100%" height="100%" viewBox="0 0 427 441" fill="none" xmlns="http://www.w3.org/2000/svg">
<path d="M108.389 50.4999C87.1341 64.2951 86.0557 101.333 90.3891 123.5C90.3891 130.667 94.889 147.5 112.889 157.5C135.389 170 252.889 163 286.389 153.5C319.889 144 299.389 103 294.889 73.9999C291.289 50.7999 271.008 42.0003 235.889 41.9999C198 41.9994 131.5 35.5001 108.389 50.4999Z" fill="#A4E7FF" fill-opacity="0.3"></path>
<path d="M350.389 321.825C434.389 325.025 432.056 361.158 420.389 378.825C405.389 421.825 305.389 440.825 204.889 440.825C104.389 440.825 96.8889 403.325 96.8889 351.825C96.8889 300.325 90.3889 228.825 96.8889 183.825C103.389 138.825 127.889 140.825 173.889 142.825C219.889 144.825 226.389 150.325 229.389 189.325C232.389 228.325 229.389 242.825 204.889 245.825C180.389 248.825 152.389 254.325 157.889 290.825C163.389 327.325 245.389 317.825 350.389 321.825Z" fill="#7DDDFF" fill-opacity="0.3"></path>
<path d="M380.759 184.5C383.159 180.9 379.759 176 377.759 174C358.259 180 332.759 168.5 331.759 174C330.759 179.5 349.259 180 355.759 184.5C362.259 189 361.259 189 349.259 190.5C339.659 191.7 331.592 194.333 328.759 195.5C355.759 198 377.759 189 380.759 184.5Z" fill="#FC3205"></path>
<path d="M370.819 423C388.602 340.306 394.855 259.878 395.759 230L327.259 228C313.379 284.671 306.843 382.28 305.759 423H316.06C334.71 359.39 350.939 284.213 356.722 254.577C360.626 274.238 362.686 321.079 363.228 342.041V423H370.819Z" fill="black"></path>
<path d="M194.759 137.891C209.759 142.391 244.259 142.391 251.759 142.391C324.126 142.39 318.534 114.747 353.758 120.891C380.759 125.6 387.759 120.109 403.259 167.5C407.72 181.14 413.336 198.458 394.334 208.905C396.313 225.143 399.763 235.391 393.258 235.391C375.73 235.391 324.258 241.391 324.258 224.391C324.258 175.274 319.259 170.809 289.259 174.391C255.759 178.391 226.759 169.391 194.759 146.891V137.891Z" fill="#FF5029"></path>
<path d="M353.5 428.5C358.3 427.7 361.833 424.167 363 422.5H371L372 433H346.5C345.5 429.5 347.5 429.5 353.5 428.5Z" fill="#FF5029"></path>
<path d="M296.246 428.5C301.046 427.7 304.579 424.167 305.746 422.5H313.746L314.746 433H289.246C288.246 429.5 290.246 429.5 296.246 428.5Z" fill="#FF5029"></path>
<path d="M285.259 175C299.659 173 311.259 173 315.759 176.5L318.759 180C320.092 175.5 313.958 164.5 310.758 156.5C306.758 146.5 301.258 152 275.758 156.5C266.759 158.088 255.41 158.383 245.759 156.5C225.259 152.5 206.425 148.5 195.258 141.5V146C226.259 174 267.259 177.5 285.259 175Z" fill="#FC3205"></path>
<path d="M329.759 209C366.259 216.5 386.759 212.5 394.259 209C394.259 214 396.925 223.333 396.759 226C357.559 233.2 335.759 217.667 329.759 209Z" fill="#FC3205"></path>
<path d="M362.612 80.4407C364.841 86.9409 363.112 114.44 361.112 122.44C357.778 127.274 354.412 133.24 347.612 132.44C344.612 132.087 342.612 127.44 342.612 125.44V120.94C342.612 120.94 337.612 122.44 334.612 119.44C330.612 115.44 329.112 100.941 333.112 86.9409C337.233 72.5181 356.612 62.9407 362.612 80.4407Z" fill="#F6B58B"></path>
<path d="M355.759 113C350.959 119.4 345.092 121 342.759 121C341.959 123.8 342.425 126.167 342.759 127C343.759 127.5 346.659 127.7 350.259 124.5C353.859 121.3 355.425 115.5 355.759 113Z" fill="#E89763"></path>
<path d="M178.259 132C181.459 132.4 190.925 136.167 195.259 138V146.5C179.759 143.5 174.259 131.5 178.259 132Z" fill="#E89763"></path>
<path d="M316.259 193.5C319.059 191.5 326.092 194.333 329.259 196V208.5C318.259 207 312.759 196 316.259 193.5Z" fill="#F6B58B"></path>
<path d="M340.348 88.1464C334.348 92.1464 330.348 93.6464 322.348 88.1464C312.575 81.4277 325.018 73.1467 332.848 73.1464C338.848 73.1463 337.848 62.6467 349.348 64.1467C360.848 65.6467 357.848 70.1464 360.348 73.1464C368.848 72.1464 368.348 78.6464 367.348 86.1464C366.348 93.6464 369.848 93.1464 372.348 99.1464C374.848 105.146 373.848 110.146 365.348 114.146C356.848 118.146 351.848 106.646 357.848 102.646C363.848 98.6464 351.848 95.1464 351.848 88.1464C351.848 81.1464 346.348 84.1464 340.348 88.1464Z" fill="black"></path>
<path d="M269.5 153.5H131.5V292.5H269.5V153.5Z" stroke="#7DDDFF"></path>
<path d="M261 69H138C124.745 69 114 79.7452 114 93V398C114 411.255 124.745 422 138 422H261C274.255 422 285 411.255 285 398V93C285 79.7452 274.255 69 261 69Z" stroke="#7DDDFF" stroke-width="2"></path>
<path d="M280.5 99.5H120.5V396.5H280.5V99.5Z" stroke="#7DDDFF"></path>
<path d="M269.5 113.5H131.5V140.5H269.5V113.5Z" stroke="#7DDDFF"></path>
<path d="M269.5 304.5H131.5V383.5H269.5V304.5Z" stroke="#7DDDFF"></path>
<path d="M193.5 164.5H143.5V216.5H193.5V164.5Z" stroke="#7DDDFF"></path>
<path d="M204.5 164.5H259.5" stroke="#7DDDFF"></path>
<path d="M204.5 175H259.5" stroke="#7DDDFF"></path>
<path d="M204.5 186H259.5" stroke="#7DDDFF"></path>
<path d="M204.5 197H259.5" stroke="#7DDDFF"></path>
<path d="M204.5 207H259.5" stroke="#7DDDFF"></path>
<path d="M204.5 217H259.5" stroke="#7DDDFF"></path>
<path d="M143.5 227H259.5" stroke="#7DDDFF"></path>
<path d="M143.5 237H259.5" stroke="#7DDDFF"></path>
<path d="M143.5 248H259.5" stroke="#7DDDFF"></path>
<path d="M143.5 259H259.5" stroke="#7DDDFF"></path>
<path d="M143.5 270H259.5" stroke="#7DDDFF"></path>
<path d="M143.5 281H259.5" stroke="#7DDDFF"></path>
<path d="M65.0741 59L65.6241 58.1648L65.3738 58H65.0741V59ZM79.5 68.5L78.95 69.3352L80.5 70.3559V68.5H79.5ZM79.5 58.9918L79.4673 57.9924L78.5 58.024V58.9918H79.5ZM35 16C35 8.26801 41.268 2 49 2V0C40.1634 0 33 7.16344 33 16H35ZM35 44V16H33V44H35ZM49 58C41.268 58 35 51.732 35 44H33C33 52.8366 40.1634 60 49 60V58ZM65.0741 58H49V60H65.0741V58ZM80.05 67.6648L65.6241 58.1648L64.5241 59.8352L78.95 69.3352L80.05 67.6648ZM78.5 58.9918V68.5H80.5V58.9918H78.5ZM93 44C93 51.5756 86.9826 57.7462 79.4673 57.9924L79.5327 59.9913C88.123 59.7099 95 52.6583 95 44H93ZM93 16V44H95V16H93ZM79 2C86.732 2 93 8.26801 93 16H95C95 7.16344 87.8366 0 79 0V2ZM49 2H79V0H49V2Z" fill="#7DDDFF"></path>
<path d="M71 22H57C55.8954 22 55 22.8954 55 24V38C55 39.1046 55.8954 40 57 40H71C72.1046 40 73 39.1046 73 38V24C73 22.8954 72.1046 22 71 22Z" stroke="#7DDDFF" stroke-width="2" stroke-linecap="round" stroke-linejoin="round"></path>
<path d="M60.5 29C61.3284 29 62 28.3284 62 27.5C62 26.6716 61.3284 26 60.5 26C59.6716 26 59 26.6716 59 27.5C59 28.3284 59.6716 29 60.5 29Z" stroke="#7DDDFF" stroke-width="2" stroke-linecap="round" stroke-linejoin="round"></path>
<path d="M73 34L68 29L57 40" stroke="#7DDDFF" stroke-width="2" stroke-linecap="round" stroke-linejoin="round"></path>
<path d="M42.396 197.4L43.221 196.147L42.8455 195.9H42.396V197.4ZM61.15 209.75L60.325 211.003L62.65 212.534V209.75H61.15ZM61.15 197.4V195.9H59.65V197.4H61.15ZM3.5 137C3.5 129.544 9.54416 123.5 17 123.5V120.5C7.8873 120.5 0.5 127.887 0.5 137H3.5ZM3.5 182.4V137H0.5V182.4H3.5ZM17 195.9C9.54416 195.9 3.5 189.856 3.5 182.4H0.5C0.5 191.513 7.8873 198.9 17 198.9V195.9ZM42.396 195.9H17V198.9H42.396V195.9ZM61.975 208.497L43.221 196.147L41.571 198.653L60.325 211.003L61.975 208.497ZM59.65 197.4V209.75H62.65V197.4H59.65ZM65 195.9H61.15V198.9H65V195.9ZM78.5 182.4C78.5 189.856 72.4558 195.9 65 195.9V198.9C74.1127 198.9 81.5 191.513 81.5 182.4H78.5ZM78.5 137V182.4H81.5V137H78.5ZM65 123.5C72.4558 123.5 78.5 129.544 78.5 137H81.5C81.5 127.887 74.1127 120.5 65 120.5V123.5ZM17 123.5H65V120.5H17V123.5Z" fill="#7DDDFF"></path>
<path d="M42.5 172.083L53.2917 161L57.9167 165.75L47.125 176.833L42.5 172.083Z" stroke="#7DDDFF" stroke-width="3" stroke-linecap="round" stroke-linejoin="round"></path>
<path d="M51.75 162.583L49.4375 150.708L27.0833 145.167L32.4792 168.125L44.0417 170.5L51.75 162.583Z" stroke="#7DDDFF" stroke-width="3" stroke-linecap="round" stroke-linejoin="round"></path>
<path d="M27.0833 145.167L38.7784 157.178" stroke="#7DDDFF" stroke-width="3" stroke-linecap="round" stroke-linejoin="round"></path>
<path d="M40.9583 162.583C42.6612 162.583 44.0417 161.166 44.0417 159.417C44.0417 157.668 42.6612 156.25 40.9583 156.25C39.2555 156.25 37.875 157.668 37.875 159.417C37.875 161.166 39.2555 162.583 40.9583 162.583Z" stroke="#7DDDFF" stroke-width="3" stroke-linecap="round" stroke-linejoin="round"></path>
</svg>