<svg width="100%" height="100%" viewBox="0 0 610 477" fill="none" xmlns="http://www.w3.org/2000/svg">
<path fill-rule="evenodd" clip-rule="evenodd" d="M418.513 168.338C410.328 178.789 408.637 191.599 409.649 199.892L409.75 200.724V277.158H382.16V202.344C380.674 188.407 383.475 168.331 396.791 151.327C410.845 133.381 434.901 121 471.741 121C508.581 121 532.638 133.381 546.691 151.327C560.007 168.331 562.808 188.407 561.322 202.344V277.158H533.732V200.724L533.834 199.892C534.845 191.599 533.154 178.789 524.97 168.338C517.237 158.464 502.044 148.59 471.741 148.59C441.438 148.59 426.245 158.464 418.513 168.338Z" fill="#E1F7FF"></path>
<path d="M336 368.734V276.054H552.374V368.734C552.374 405.174 540.036 476.907 444.187 476.907C348.339 476.907 336 406.277 336 368.734Z" fill="#E1F7FF"></path>
<path d="M374.626 368.734V276.054H591V368.734C591 405.174 578.661 476.907 482.813 476.907C386.964 476.907 374.626 406.277 374.626 368.734Z" fill="#9BE5FF"></path>
<path d="M400.56 191.63V276.606H409.94V191.63C409.94 179.49 427.046 149.142 468.982 149.142C519.747 149.142 534.278 175.26 535.197 188.319C534.462 173.053 520.189 142.52 468.982 142.52C417.776 142.52 402.031 175.26 400.56 191.63Z" fill="#9BE5FF"></path>
<path d="M561.132 196.044C561.132 169.558 547.521 151.165 540.715 145.279C553.517 159.846 554.878 185.192 553.958 196.044V276.606H561.132V196.044Z" fill="#9BE5FF"></path>
<circle cx="486.088" cy="375.377" r="17.6574" fill="#E1F7FF"></circle>
<rect x="479.466" y="381.998" width="14.3466" height="32.004" fill="#E1F7FF"></rect>
<path d="M402 339C364 311.4 299.167 291.167 271.5 284.5L177 293.5C173.5 315.5 177.667 413 190 441.5H173.5C125.5 441.5 85.8333 455.833 72 463V476H233.5V349.5C237.667 346 251.1 339 271.5 339C291.9 339 346 349.833 366 357C350.4 386.698 338.167 435.874 338.5 455H357C393.4 392.6 402.167 351.667 402 339Z" fill="black"></path>
<path d="M291.5 101.5C345.1 127.9 448.5 107.667 468.5 104.5V121.5C418 165 303 173 285 171C270.6 169.4 275 179.5 275 194C280.5 221.167 288.2 278.7 275 291.5C258.5 307.5 184.5 319 170 304.5C163.5 298 170 272 170 272C63.5 266 141 125 157.5 101.5C170.7 82.7 208.667 84 226 87C237 86.3334 265.5 88.3 291.5 101.5Z" fill="#FF5029"></path>
<path d="M368 465.5C364 461.1 356.667 457.167 356.5 454.5H339.5C333.5 462.1 332.667 472 333 477H392C395 464.5 371.922 469.815 368 465.5Z" fill="#FF5029"></path>
<path d="M9 476H72.5V463.5C63.5 455 58 450.833 49.5 447.5L37.5 458.5L0 467.5C1.2 476.7 7.5 476 9 476Z" fill="#FF5029"></path>
<path d="M365.5 148C326.3 152.8 292.833 150 281 148C265.8 174 274.667 173.833 281 170.5H288.5C297.667 171.5 329.2 170.7 382 159.5C434.8 148.3 461.333 129.167 468 121V115.5C450.167 124.333 404.7 143.2 365.5 148Z" fill="#FC3205"></path>
<path d="M164.5 220.5C160.1 201.3 177 176.167 186 166C195.167 163.833 212.2 163 207 177C200.5 194.5 197 215.5 207 233C215 247 229.667 247.5 236 246C233.5 248 224.2 251.7 207 250.5C185.5 249 170 244.5 164.5 220.5Z" fill="#FC3205"></path>
<path d="M243.5 77C254.7 75 255.833 46.5 255 32.5C247 -4.50002 207 25.5 204 42.5C201.6 56.1 196.667 77.1666 194.5 86C195.5 95 205.5 102.5 217 104C226.2 105.2 230.833 95.3333 229.5 89L231.5 78.5C236.3 79.7 241.5 78 243.5 77Z" fill="#F6B58B"></path>
<path d="M266.598 11.1773C257.398 11.9773 250.764 7.17733 248.598 4.67733C236.098 -6.32267 223.098 4.67733 220.098 11.1773C217.098 17.6773 207.098 11.1773 198.098 20.6773C189.098 30.1773 197.598 30.6773 193.098 37.1773C188.598 43.6773 183.098 42.6773 180.598 52.1773C178.098 61.6773 183.098 64.6773 202.098 66.1773C221.098 67.6773 210.598 51.1773 217.098 49.1773C223.598 47.1773 231.098 41.6773 231.098 37.1773C231.098 32.6773 234.598 26.6773 245.598 34.1773C256.598 41.6773 255.098 29.1773 261.098 30.6773C267.098 32.1773 279.098 27.1773 280.598 20.6773C282.098 14.1773 278.098 10.1773 266.598 11.1773Z" fill="black"></path>
<path d="M242 77.5C224.4 78.7 216.667 67.8333 216.5 60.5C214.5 63.5 216.5 72.6667 218 76C221.6 84 227.5 86 230 86L231.5 78.5C235.5 79.3 240.167 78.1667 242 77.5Z" fill="#E89763"></path>
<path d="M498.5 131C500.5 113 479 106.5 468 105.5V121C482.4 121.8 494.333 128 498.5 131Z" fill="#F6B58B"></path>
<path d="M254 238C249.2 236 240 242.833 236 246.5L241 262C258 254.5 260 240.5 254 238Z" fill="#F6B58B"></path>
<path d="M235 246.5C199.8 252.1 182 239.167 177.5 232L219.5 176.5L264 208L235 246.5Z" fill="#9BE5FF"></path>
<path d="M193 295.5L212.5 271.5C188.5 275 167 271.5 163.5 271.5L193 295.5Z" fill="#9BE5FF"></path>
<path d="M201.031 228.872C200.165 230.621 200.366 231.953 201.636 232.865C202.869 233.752 204.374 233.619 206.151 232.468C206.294 232.347 206.291 232.234 206.144 232.128L201.423 228.734C201.258 228.615 201.127 228.661 201.031 228.872ZM216.283 232.004C215.546 231.475 214.832 231.226 214.139 231.258C213.44 231.259 212.615 231.573 211.662 232.2C211.603 232.242 211.573 232.303 211.57 232.385C211.549 232.453 211.566 232.508 211.621 232.547L216.894 236.337C216.949 236.377 217.024 236.389 217.119 236.374C217.196 236.345 217.245 236.296 217.266 236.228C218.028 234.43 217.7 233.022 216.283 232.004ZM208.782 234.4C206.87 235.818 205.174 236.623 203.696 236.816C202.23 236.991 200.862 236.622 199.592 235.709C198.249 234.743 197.483 233.537 197.295 232.09C197.102 230.611 197.528 228.95 198.574 227.106C198.67 226.895 198.644 226.737 198.497 226.631L197.089 225.619C196.776 225.394 196.588 225.092 196.526 224.712C196.459 224.301 196.538 223.939 196.763 223.626C196.987 223.313 197.299 223.132 197.697 223.083C198.09 223.003 198.443 223.075 198.756 223.3L200.164 224.312C200.329 224.431 200.465 224.417 200.571 224.27C201.549 223.103 202.484 222.113 203.374 221.302C203.725 220.968 204.146 220.81 204.636 220.827C205.121 220.813 205.557 220.945 205.943 221.222C206.256 221.447 206.415 221.771 206.419 222.192C206.418 222.582 206.258 222.901 205.942 223.147C204.893 223.985 203.919 224.932 203.02 225.988C202.901 226.154 202.915 226.29 203.062 226.396L208.474 230.285C208.602 230.378 208.763 230.368 208.956 230.255C210.934 228.746 212.643 227.922 214.082 227.784C215.502 227.633 216.931 228.073 218.366 229.105C219.82 230.15 220.671 231.432 220.92 232.95C221.15 234.456 220.767 236.134 219.771 237.986C219.675 238.197 219.701 238.355 219.848 238.461L221.256 239.473C221.569 239.698 221.759 240.016 221.827 240.427C221.907 240.82 221.835 241.173 221.61 241.486C221.385 241.799 221.067 241.989 220.656 242.056C220.258 242.105 219.902 242.017 219.589 241.792L218.237 240.82C218.071 240.7 217.929 240.724 217.809 240.889C216.805 242.093 215.769 243.107 214.702 243.931C214.282 244.244 213.82 244.401 213.317 244.402C212.795 244.39 212.323 244.231 211.899 243.927C211.587 243.702 211.44 243.401 211.459 243.025C211.492 242.63 211.67 242.324 211.992 242.109C213.209 241.309 214.329 240.314 215.352 239.123C215.471 238.958 215.457 238.822 215.31 238.716L209.264 234.37C209.135 234.278 208.974 234.288 208.782 234.4Z" fill="#E1F7FF"></path>
</svg>