<svg xmlns="http://www.w3.org/2000/svg">
	<symbol id="whatsapp" viewBox="-23 -21 682 682.66669">
    <path d="m544.386719 93.007812c-59.875-59.945312-139.503907-92.9726558-224.335938-93.007812-174.804687 0-317.070312 142.261719-317.140625 317.113281-.023437 55.894531 14.578125 110.457031 42.332032 158.550781l-44.992188 164.335938 168.121094-44.101562c46.324218 25.269531 98.476562 38.585937 151.550781 38.601562h.132813c174.785156 0 317.066406-142.273438 317.132812-317.132812.035156-84.742188-32.921875-164.417969-92.800781-224.359376zm-224.335938 487.933594h-.109375c-47.296875-.019531-93.683594-12.730468-134.160156-36.742187l-9.621094-5.714844-99.765625 26.171875 26.628907-97.269531-6.269532-9.972657c-26.386718-41.96875-40.320312-90.476562-40.296875-140.28125.054688-145.332031 118.304688-263.570312 263.699219-263.570312 70.40625.023438 136.589844 27.476562 186.355469 77.300781s77.15625 116.050781 77.132812 186.484375c-.0625 145.34375-118.304687 263.59375-263.59375 263.59375zm144.585938-197.417968c-7.921875-3.96875-46.882813-23.132813-54.148438-25.78125-7.257812-2.644532-12.546875-3.960938-17.824219 3.96875-5.285156 7.929687-20.46875 25.78125-25.09375 31.066406-4.625 5.289062-9.242187 5.953125-17.167968 1.984375-7.925782-3.964844-33.457032-12.335938-63.726563-39.332031-23.554687-21.011719-39.457031-46.960938-44.082031-54.890626-4.617188-7.9375-.039062-11.8125 3.476562-16.171874 8.578126-10.652344 17.167969-21.820313 19.808594-27.105469 2.644532-5.289063 1.320313-9.917969-.664062-13.882813-1.976563-3.964844-17.824219-42.96875-24.425782-58.839844-6.4375-15.445312-12.964843-13.359374-17.832031-13.601562-4.617187-.230469-9.902343-.277344-15.1875-.277344-5.28125 0-13.867187 1.980469-21.132812 9.917969-7.261719 7.933594-27.730469 27.101563-27.730469 66.105469s28.394531 76.683594 32.355469 81.972656c3.960937 5.289062 55.878906 85.328125 135.367187 119.648438 18.90625 8.171874 33.664063 13.042968 45.175782 16.695312 18.984374 6.03125 36.253906 5.179688 49.910156 3.140625 15.226562-2.277344 46.878906-19.171875 53.488281-37.679687 6.601563-18.511719 6.601563-34.375 4.617187-37.683594-1.976562-3.304688-7.261718-5.285156-15.183593-9.253906zm0 0" fill-rule="evenodd"/>
  </symbol>
  <symbol id="check" viewBox="0 0 515.556 515.556">
    <path d="m0 274.226 176.549 176.886 339.007-338.672-48.67-47.997-290.337 290-128.553-128.552z"/>
  </symbol>
  <symbol id="chevron-left" viewBox="0 0 256 256">
		<g><g><polygon points="207.093,30.187 176.907,0 48.907,128 176.907,256 207.093,225.813 109.28,128 "/></g></g><g></g><g></g><g></g><g></g><g></g><g></g><g></g><g></g><g></g><g></g><g></g><g></g><g></g><g></g><g></g>
	</symbol>
	<symbol id="chevron-right" viewBox="0 0 256 256">
		<g><g><polygon points="79.093,0 48.907,30.187 146.72,128 48.907,225.813 79.093,256 207.093,128 "/></g></g><g></g><g></g><g></g><g></g><g></g><g></g><g></g><g></g><g></g><g></g><g></g><g></g><g></g><g></g><g></g>
	</symbol>
	<symbol id="rocket" viewBox="0 0 60 60">
		<g><path class="st0" d="M10.482,34.473c-2.245,0-9.349-1.626-9.65-1.696c-0.342-0.079-0.583-0.383-0.582-0.733 s0.245-0.653,0.587-0.729c0.299-0.067,7.343-1.629,9.646-1.629c1.916,0,1.916,1.736,1.916,2.39 c0.001,0.536,0.003,1.348-0.546,1.898C11.522,34.305,11.061,34.473,10.482,34.473z M4.621,32.059 c2.164,0.441,4.747,0.914,5.862,0.914c0.198,0,0.288-0.039,0.309-0.059c0.109-0.11,0.108-0.639,0.107-0.837 c0-0.892-0.072-0.892-0.416-0.892C9.338,31.185,6.771,31.637,4.621,32.059z"></path><path class="st0" d="M39.921,38.784c-0.001,0-0.001,0-0.001,0c-1.785,0-3.602-0.052-5.526-0.107 c-2.213-0.063-4.721-0.136-7.564-0.136c-2.728,0-5.548-0.312-7.815-0.562c-1.042-0.115-1.952-0.216-2.651-0.262 c-0.001,0-0.003,0-0.004,0c-0.536,0-0.921,0.35-0.924,0.353c-0.212,0.209-0.526,0.272-0.803,0.163 c-0.276-0.11-0.461-0.372-0.473-0.668c-0.003-0.079-0.074-1.981-0.074-7.072c0-0.279-0.008-0.628-0.017-1.001 c-0.022-0.947-0.047-2.02,0.037-2.67c0.032-0.249,0.188-0.466,0.413-0.577c0.226-0.111,0.492-0.102,0.709,0.026l1.146,0.669 l12.494-0.721c1.147-1.044,3.632-2.675,5.837-3.363c1.125-0.352,2.482-0.53,4.034-0.53c1.201,0,2.52,0.11,3.812,0.319 c10.063,1.627,17.2,8.048,17.2,9.727c0,1.402-3.002,4.849-11.923,5.955C45.275,38.643,42.837,38.784,39.921,38.784z M16.299,36.214c0.053,0,0.107,0.002,0.162,0.005c0.717,0.047,1.649,0.15,2.717,0.268c2.23,0.246,5.005,0.553,7.65,0.553 c2.864,0,5.384,0.072,7.607,0.136c1.913,0.055,3.72,0.107,5.483,0.107c0,0,0.001,0,0.001,0c2.852,0,5.233-0.138,7.721-0.446 c7.881-0.977,10.334-3.759,10.589-4.421c-0.587-1.071-6.585-6.781-15.92-8.292c-2.73-0.439-5.393-0.39-7.16,0.162 c-2.096,0.654-4.545,2.304-5.437,3.195c-0.13,0.13-0.303,0.208-0.487,0.218l-12.994,0.75 c-0.146,0.013-0.294-0.026-0.421-0.101l-0.266-0.155c0.001,0.416,0.012,0.862,0.021,1.262 c0.009,0.387,0.018,0.748,0.018,1.037c0,2.866,0.023,4.731,0.043,5.812C15.833,36.25,16.058,36.214,16.299,36.214z"></path><path class="st0" d="M22.105,27.932c-0.394,0-0.725-0.307-0.748-0.706c-0.17-2.874-0.94-4.692-1.449-5.896 c-0.318-0.759-0.536-1.279-0.567-1.813c-0.035-0.56,0.156-1.043,0.567-1.436c0.361-0.341,1.083-0.664,2.481-0.27 c1.195,0.337,3.048,1.279,4.669,2.912c1.223,1.231,2.714,3.27,2.877,5.99c0.025,0.414-0.29,0.769-0.704,0.793 c-0.403,0.028-0.769-0.29-0.793-0.704c-0.136-2.253-1.404-3.975-2.445-5.023c-1.416-1.426-3-2.239-4.011-2.524 c-0.67-0.188-0.988-0.119-1.048-0.081c-0.082,0.079-0.104,0.134-0.097,0.251c0.017,0.281,0.203,0.725,0.438,1.287 c0.563,1.332,1.393,3.293,1.579,6.425c0.025,0.414-0.291,0.769-0.704,0.793C22.135,27.932,22.12,27.932,22.105,27.932z"></path><path class="st0" d="M45.402,29.654c-2.32,0-4.16-0.398-4.313-0.432c-0.255-0.057-0.462-0.242-0.546-0.489 c-0.028-0.081-0.662-1.999,0.618-4.154c0.456-0.765,0.979-1.347,1.251-1.626c0.29-0.296,0.764-0.303,1.061-0.015 c0.297,0.289,0.304,0.763,0.015,1.061c-0.225,0.232-0.66,0.715-1.037,1.348c-0.616,1.037-0.626,1.986-0.565,2.5 c1.626,0.279,7.068,0.97,10.061-1.544c0.317-0.266,0.79-0.226,1.057,0.092c0.267,0.317,0.226,0.79-0.092,1.057 C50.811,29.214,47.841,29.654,45.402,29.654z"></path><path class="st0" d="M21.502,42.371c-0.416,0-0.646-0.055-0.798-0.107c-0.742-0.257-0.822-0.792-0.822-1.01 c0-0.425,0.253-0.75,0.546-1.128c0.168-0.214,0.96-1.288,0.989-2.582c0.009-0.414,0.36-0.725,0.767-0.733 c0.414,0.01,0.742,0.353,0.733,0.767c-0.035,1.517-0.785,2.752-1.167,3.284c0.178-0.01,0.404-0.032,0.691-0.073 c1.091-0.156,2.782-0.558,4.254-1.219c1.536-0.687,2.112-1.356,2.14-1.755c0.029-0.413,0.396-0.726,0.8-0.696 c0.413,0.028,0.725,0.386,0.696,0.8c-0.079,1.143-1.096,2.159-3.023,3.021c-1.614,0.724-3.462,1.164-4.654,1.334 C22.161,42.344,21.788,42.371,21.502,42.371z"></path><path class="st0" d="M51.979,37.524c-0.388,0-0.717-0.299-0.747-0.693c-0.29-3.811,1.068-7.155,2.259-9.29 c0.202-0.362,0.66-0.492,1.02-0.29c0.362,0.202,0.492,0.658,0.29,1.02c-1.09,1.955-2.335,5.007-2.073,8.445 c0.031,0.413-0.278,0.773-0.691,0.805C52.018,37.524,51.999,37.524,51.979,37.524z"></path></g>
	</symbol>
  <symbol id="planet" viewBox="0 0 60 60">
    <g><path class="st0" d="M14.913,34.533c-0.355,0-0.671-0.254-0.737-0.616c-0.174-0.959-0.262-1.942-0.262-2.922 c0-8.96,7.29-16.25,16.25-16.25s16.25,7.29,16.25,16.25c0,0.981-0.088,1.964-0.262,2.922c-0.074,0.408-0.468,0.68-0.872,0.604 c-0.407-0.074-0.678-0.464-0.604-0.872c0.158-0.871,0.238-1.764,0.238-2.655c0-8.133-6.617-14.75-14.75-14.75 s-14.75,6.617-14.75,14.75c0,0.891,0.08,1.784,0.238,2.655c0.073,0.408-0.197,0.798-0.604,0.872 C15.003,34.529,14.958,34.533,14.913,34.533z"></path><path class="st0" d="M30.164,47.245c-6.156,0-11.713-3.413-14.5-8.907c-0.188-0.37-0.04-0.821,0.33-1.008 c0.371-0.188,0.82-0.039,1.008,0.33c2.53,4.987,7.573,8.085,13.162,8.085c5.587,0,10.63-3.098,13.161-8.084 c0.188-0.37,0.637-0.517,1.009-0.33c0.369,0.188,0.517,0.639,0.329,1.008C41.875,43.833,36.319,47.245,30.164,47.245z"></path><path class="st0" d="M30.164,39.712c-4.87,0-9.69-0.335-13.94-0.971c-4.754-0.71-15.81-2.886-15.81-7.747 c0-4.861,11.056-7.037,15.81-7.746c0.402-0.062,0.791,0.221,0.853,0.631c0.061,0.41-0.222,0.792-0.632,0.853 c-10.037,1.499-14.53,4.225-14.53,6.263s4.493,4.764,14.53,6.264c8.357,1.248,19.082,1.248,27.439,0 c10.037-1.5,14.53-4.226,14.53-6.264s-4.493-4.764-14.53-6.263c-0.41-0.061-0.692-0.443-0.632-0.853 c0.061-0.41,0.447-0.694,0.853-0.631c4.754,0.709,15.81,2.885,15.81,7.746c0,4.861-11.056,7.037-15.81,7.747 C39.854,39.377,35.034,39.712,30.164,39.712z"></path><path class="st0" d="M30.164,36.229c-4.49,0-8.714-0.338-12.215-0.977c-1.193-0.217-2.285-0.468-3.245-0.748 c-3.104-0.906-4.614-2.024-4.614-3.417c0-1.389,1.498-2.503,4.581-3.407c0.399-0.118,0.814,0.111,0.931,0.509 s-0.111,0.814-0.509,0.931c-2.771,0.812-3.503,1.643-3.503,1.968c0,0.327,0.738,1.162,3.534,1.977 c0.91,0.266,1.951,0.505,3.094,0.713c3.365,0.614,7.607,0.952,11.946,0.952s8.581-0.338,11.945-0.952 c1.146-0.208,2.187-0.448,3.094-0.713c2.796-0.815,3.535-1.65,3.535-1.977c0-0.325-0.732-1.155-3.502-1.968 c-0.397-0.117-0.625-0.533-0.509-0.931s0.531-0.626,0.931-0.509c3.082,0.904,4.58,2.019,4.58,3.407 c0,1.394-1.51,2.512-4.615,3.417c-0.956,0.279-2.048,0.531-3.245,0.748C38.878,35.891,34.654,36.229,30.164,36.229z"></path></g>
  </symbol>
  <symbol id="star" viewBox="0 0 60 60">
    <g><path class="st0" d="M52.647,53.511c-0.12,0-0.239-0.028-0.349-0.086l-9.93-5.22l-9.931,5.22 c-0.252,0.132-0.558,0.111-0.79-0.057c-0.231-0.168-0.347-0.453-0.298-0.734l1.898-11.057l-8.035-7.831 c-0.266-0.259-0.302-0.674-0.085-0.975c0.05-0.07,5.018-7.088,2.439-12.114c-1.858-3.621-7.162-5.457-15.765-5.457 c-3.133,0-6.735,0.251-10.708,0.748c-0.352,0.047-0.689-0.166-0.803-0.504c-0.114-0.337,0.025-0.709,0.333-0.888 c0.566-0.329,14.036-8.066,28.457-8.066c15.457,0,26.054,9.173,30.645,26.528c0.069,0.262-0.008,0.54-0.202,0.729l-8.033,7.831 l1.896,11.057c0.048,0.282-0.067,0.566-0.298,0.734C52.958,53.463,52.803,53.511,52.647,53.511z M42.368,46.608 c0.12,0,0.24,0.029,0.349,0.086l8.934,4.696l-1.706-9.948c-0.042-0.244,0.039-0.492,0.216-0.664l8-7.799 C53.649,16.396,43.867,7.989,29.08,7.989c-9.682,0-19.139,3.712-24.108,6.036c13.317-1.171,21.314,0.844,23.931,5.952 c2.571,5.02-0.994,11.269-2.196,13.132l7.869,7.669c0.177,0.172,0.257,0.42,0.216,0.664l-1.708,9.948l8.935-4.696 C42.128,46.637,42.249,46.608,42.368,46.608z"></path><path class="st0" d="M52.647,53.511c-0.12,0-0.239-0.028-0.349-0.086l-9.93-5.22l-9.931,5.22 c-0.252,0.132-0.558,0.111-0.79-0.057c-0.231-0.168-0.347-0.453-0.298-0.734l1.898-11.057l-8.035-7.831 c-0.205-0.199-0.278-0.498-0.19-0.769c0.088-0.271,0.323-0.469,0.605-0.51l11.103-1.613l4.965-10.06 c0.126-0.256,0.387-0.418,0.672-0.418l0,0c0.286,0,0.546,0.162,0.672,0.418l4.964,10.06l11.103,1.613 c0.282,0.041,0.517,0.239,0.605,0.51c0.088,0.271,0.015,0.57-0.19,0.769l-8.033,7.831l1.896,11.057 c0.048,0.282-0.067,0.566-0.298,0.734C52.958,53.463,52.803,53.511,52.647,53.511z M42.368,46.608c0.12,0,0.24,0.029,0.349,0.086 l8.934,4.696l-1.706-9.948c-0.042-0.244,0.039-0.492,0.216-0.664l7.227-7.045l-9.989-1.452c-0.244-0.036-0.456-0.189-0.564-0.41 l-4.466-9.051l-4.467,9.051c-0.109,0.221-0.32,0.375-0.564,0.41l-9.989,1.451l7.229,7.045c0.177,0.172,0.257,0.42,0.216,0.664 l-1.708,9.948l8.935-4.696C42.128,46.637,42.249,46.608,42.368,46.608z"></path></g>
  </symbol>
  <symbol id="satellite" viewBox="0 0 60 60">
    <g transform="scale(0.6) translate(20, 20)"><path class="st0" d="M28.098,45.461c-5.573,0-9.973-1.512-10.293-1.625c-0.093-0.033-0.177-0.083-0.248-0.146 c-0.459-0.202-0.861-0.472-1.197-0.804c-3.715-3.681,0.337-14.612,8.671-23.394c0.285-0.302,0.76-0.313,1.061-0.028 c0.3,0.285,0.312,0.76,0.027,1.06c-8.241,8.684-11.445,18.578-8.703,21.295c0.249,0.247,0.553,0.433,0.928,0.57 c0.072,0.026,0.139,0.063,0.198,0.108c1.837,0.579,13.854,3.997,22.551-2.445c2.73-2.022,15.179-15.108,8.422-28.505 c-0.022-0.046-0.041-0.094-0.055-0.144c-0.136-0.508-0.364-0.924-0.681-1.237c-2.671-2.645-12.037,0.335-20.57,8.287 c-0.303,0.283-0.778,0.266-1.061-0.038s-0.266-0.778,0.037-1.06C35.84,9.294,46.21,5.514,49.834,9.103 c0.49,0.485,0.845,1.104,1.053,1.838c7.151,14.305-6.009,28.177-8.902,30.319C37.57,44.529,32.472,45.461,28.098,45.461z"></path><path class="st0" d="M42.395,48.178c-0.323,0-0.65-0.031-0.979-0.096c-2.571-0.513-4.296-2.864-4.011-5.469 c0.045-0.413,0.404-0.708,0.827-0.664c0.411,0.045,0.709,0.416,0.663,0.827c-0.196,1.796,1.04,3.481,2.813,3.834 c1.902,0.374,3.761-0.863,4.142-2.767c0.366-1.847-0.776-3.649-2.602-4.102c-0.402-0.1-0.647-0.507-0.547-0.909 c0.1-0.403,0.511-0.646,0.908-0.547c2.604,0.646,4.234,3.216,3.711,5.851C46.843,46.523,44.739,48.178,42.395,48.178z"></path><path class="st0" d="M21.897,41.414c-1.267,0-2.288-0.358-3.014-1.076c-2.577-2.553-0.75-9.842,7.728-18.833 c0.285-0.3,0.758-0.314,1.061-0.031c0.301,0.284,0.315,0.759,0.031,1.061c-7.124,7.556-9.766,14.755-7.764,16.739 c1.08,1.068,3.521,0.817,6.692-0.688c3.452-1.637,7.333-4.537,10.928-8.166c3.597-3.629,6.461-7.536,8.066-11.002 c1.477-3.189,1.705-5.63,0.627-6.698c-1.909-1.886-8.597,0.39-16.086,7.364c-0.303,0.283-0.777,0.266-1.06-0.038 s-0.266-0.778,0.038-1.06c6.548-6.101,14.893-10.575,18.163-7.332c1.576,1.562,1.462,4.542-0.321,8.394 c-1.677,3.621-4.646,7.679-8.361,11.428s-7.746,6.755-11.351,8.465C25.204,40.921,23.383,41.414,21.897,41.414z"></path><path class="st0" d="M31.321,28.404c-0.238,0-0.462-0.113-0.604-0.304c-2.378-3.216-6.179-8.296-7.208-9.525 c-0.188,0.033-0.38,0.049-0.571,0.049c-1.955,0-3.545-1.59-3.545-3.545c0-1.954,1.59-3.544,3.545-3.544 c1.954,0,3.544,1.59,3.544,3.544c0,0.267-0.03,0.532-0.092,0.79c1.198,1.078,5.942,4.982,8.958,7.44 c0.118,0.096,0.204,0.226,0.246,0.372c0.021,0.07,0.483,1.733-1.05,3.266C33.088,28.404,31.361,28.406,31.321,28.404z M23.752,16.996c0.484,0,0.618,0,7.915,9.865c0.423-0.081,1.154-0.312,1.817-0.976c0.644-0.644,0.709-1.281,0.693-1.596 c-9.593-7.816-9.59-7.821-9.336-8.483c0.094-0.238,0.141-0.481,0.141-0.727c0-1.127-0.917-2.044-2.044-2.044 c-1.128,0-2.045,0.917-2.045,2.044c0,1.127,0.917,2.045,2.045,2.045c0.196,0,0.393-0.031,0.583-0.092 C23.596,17.008,23.675,16.996,23.752,16.996z"></path><path class="st0" d="M35.291,59.606c-0.069,0-0.141-0.01-0.211-0.03c-0.397-0.116-0.625-0.533-0.509-0.931l3.802-12.985 c0.116-0.397,0.531-0.625,0.931-0.509c0.397,0.116,0.625,0.533,0.509,0.931l-3.802,12.985 C35.915,59.394,35.616,59.606,35.291,59.606z"></path><path class="st0" d="M50.197,59.75c-0.315,0-0.608-0.2-0.712-0.516l-4.377-13.292c-0.13-0.393,0.084-0.817,0.478-0.947 c0.397-0.13,0.817,0.085,0.946,0.478l4.377,13.292c0.13,0.393-0.084,0.817-0.478,0.947 C50.354,59.738,50.274,59.75,50.197,59.75z"></path><path class="st0" d="M13.447,20.756c-0.333,0-0.637-0.223-0.725-0.561c-0.881-3.374,0.533-7.536,3.603-10.604 c3.479-3.479,8.18-4.772,11.703-3.222c0.379,0.167,0.551,0.61,0.384,0.989c-0.167,0.379-0.611,0.548-0.989,0.384 c-2.963-1.307-6.993-0.135-10.037,2.909c-2.7,2.699-3.961,6.296-3.212,9.164c0.104,0.401-0.136,0.811-0.536,0.915 C13.574,20.748,13.511,20.756,13.447,20.756z"></path><path class="st0" d="M8.094,21.193c-0.333,0-0.637-0.223-0.725-0.561c-1.23-4.718,0.78-10.571,5.124-14.912 c4.836-4.836,11.582-6.728,16.412-4.601c0.379,0.167,0.551,0.61,0.384,0.989c-0.167,0.379-0.61,0.55-0.989,0.384 c-4.271-1.884-10.338-0.12-14.746,4.289c-3.975,3.972-5.832,9.26-4.733,13.472c0.104,0.401-0.136,0.811-0.536,0.915 C8.221,21.185,8.157,21.193,8.094,21.193z"></path></g>
  </symbol>
  <symbol id="info" viewBox="0 0 45.818 45.818">
    <g><path fill="#466ce9" d="M22.909,0C10.258,0,0,10.257,0,22.908c0,12.652,10.258,22.91,22.909,22.91s22.909-10.258,22.909-22.91C45.818,10.257,35.561,0,22.909,0z M26.411,35.417c0,1.921-1.573,3.478-3.492,3.478c-1.92,0-3.492-1.557-3.492-3.478V20.201c0-1.92,1.572-3.477,3.492-3.477c1.919,0,3.492,1.556,3.492,3.477V35.417z M22.909,13.851c-2.119,0-3.837-1.718-3.837-3.836c0-2.12,1.718-3.836,3.837-3.836c2.118,0,3.837,1.716,3.837,3.836C26.746,12.133,25.027,13.851,22.909,13.851z"/></g><g></g><g></g><g></g><g></g><g></g><g></g><g></g><g></g><g></g><g></g><g></g><g></g><g></g><g></g><g></g>
  </symbol>
  <symbol id="ticket" viewBox="0 0 60 60">
    <g><path fill="rgb(70, 108, 233)" d="M49.863,0.16c-0.703-0.307-1.52-0.167-2.079,0.354L44.37,3.686l-3.123-3.123 c-0.697-0.695-1.809-0.754-2.574-0.132l-4.108,3.338l-3.202-3.204C31.002,0.203,30.513,0,30.002,0h-0.001 c-0.51,0-1,0.202-1.36,0.562l-3.123,3.122l-3.412-3.171c-0.737-0.685-1.881-0.685-2.619,0l-3.51,3.259l-3.81-3.302 c-0.57-0.494-1.375-0.61-2.061-0.297c-0.685,0.312-1.125,0.997-1.125,1.75v56.151c0,0.778,0.47,1.479,1.188,1.777 c0.238,0.099,0.488,0.146,0.735,0.146c0.502,0,0.994-0.195,1.362-0.563l3.119-3.121l3.416,3.171c0.737,0.686,1.88,0.685,2.618,0 l3.465-3.217l3.465,3.217c0.738,0.685,1.881,0.685,2.619,0l3.506-3.258l3.812,3.302c0.763,0.662,1.906,0.62,2.621-0.094 l3.163-3.165l3.762,3.259c0.569,0.492,1.374,0.609,2.06,0.296c0.685-0.312,1.125-0.997,1.125-1.75V1.924 C51.019,1.158,50.564,0.466,49.863,0.16z M47.169,53.861l-1.932-1.673c-0.763-0.662-1.906-0.621-2.621,0.094l-3.163,3.165 l-3.762-3.259c-0.742-0.644-1.85-0.624-2.569,0.044l-3.463,3.217l-3.464-3.217c-0.738-0.686-1.881-0.686-2.619,0l-3.465,3.217 l-3.465-3.217c-0.37-0.344-0.841-0.514-1.31-0.514c-0.493,0-0.986,0.188-1.361,0.563l-1.145,1.146V6.139l1.929,1.672 c0.741,0.644,1.851,0.625,2.569-0.043l3.466-3.218l3.462,3.217c0.759,0.704,1.938,0.684,2.67-0.049l3.074-3.071l3.068,3.07 c0.697,0.698,1.809,0.757,2.575,0.134l4.108-3.339l3.207,3.206c0.732,0.732,1.912,0.753,2.67,0.049l1.539-1.429V53.861z"></path><path fill="rgb(70, 108, 233)" d="M35.455,11.946H15.68c-0.531,0-0.962,0.431-0.962,0.962s0.431,0.962,0.962,0.962h19.775 c0.531,0,0.962-0.431,0.962-0.962S35.986,11.946,35.455,11.946z"></path><path fill="rgb(70, 108, 233)" d="M15.68,23.461h13.979c0.531,0,0.963-0.431,0.963-0.962s-0.432-0.962-0.963-0.962H15.68 c-0.531,0-0.962,0.431-0.962,0.962S15.148,23.461,15.68,23.461z"></path><path fill="rgb(70, 108, 233)" d="M35.455,31.19H15.68c-0.531,0-0.962,0.432-0.962,0.963s0.431,0.962,0.962,0.962h19.775 c0.531,0,0.962-0.431,0.962-0.962S35.986,31.19,35.455,31.19z"></path><path fill="rgb(70, 108, 233)" d="M29.658,41.187H15.68c-0.531,0-0.962,0.432-0.962,0.962c0,0.531,0.431,0.963,0.962,0.963h13.979 c0.531,0,0.963-0.432,0.963-0.963C30.621,41.618,30.189,41.187,29.658,41.187z"></path><path fill="rgb(70, 108, 233)" d="M44.32,11.946h-3.069c-0.531,0-0.962,0.431-0.962,0.962s0.431,0.962,0.962,0.962h3.069 c0.531,0,0.962-0.431,0.962-0.962S44.852,11.946,44.32,11.946z"></path><path fill="rgb(70, 108, 233)" d="M44.32,21.537h-3.069c-0.531,0-0.962,0.431-0.962,0.962s0.431,0.962,0.962,0.962h3.069 c0.531,0,0.962-0.431,0.962-0.962S44.852,21.537,44.32,21.537z"></path><path fill="rgb(70, 108, 233)" d="M44.32,31.19h-3.069c-0.531,0-0.962,0.432-0.962,0.963s0.431,0.962,0.962,0.962h3.069 c0.531,0,0.962-0.431,0.962-0.962S44.852,31.19,44.32,31.19z"></path><path fill="rgb(70, 108, 233)" d="M44.32,41.187h-3.069c-0.531,0-0.962,0.432-0.962,0.962c0,0.531,0.431,0.963,0.962,0.963h3.069 c0.531,0,0.962-0.432,0.962-0.963C45.282,41.618,44.852,41.187,44.32,41.187z"></path></g>
  </symbol>
  <symbol id="task" viewBox="0 0 128 128">
    <g><path d="M45.297,83.299h-1.82v-1.5h1.82v-2.991h-0.259c-0.662,0.42-1.353,0.638-2.07,0.638l-0.123-0.001 c-0.155-0.005-0.308-0.021-0.46-0.046v6.813h2.912V83.299z"></path><path d="M82.785,55.989c0.02,0.139,0.033,0.281,0.033,0.426c0,1.612-1.257,2.916-2.805,2.916c-0.156,0-0.309-0.013-0.457-0.04 c-2.433,2.169-5.653,4.164-10.362,4.609c-0.155,0.015-0.344,0.044-0.522,0.069c-0.389,1.125-1.415,1.933-2.632,1.933 c-0.81,0-1.532-0.363-2.04-0.937c-1.257,0.316-2.466,0.643-3.366,0.885c-0.364,0.1-0.696,0.189-0.977,0.26 c-1.991,0.529-3.587,1.022-4.977,1.708c0.002,0.044,0.016,0.084,0.016,0.13c0,1.61-1.257,2.913-2.807,2.913 c-0.323,0-0.628-0.066-0.917-0.172c-1.017,1.169-2.004,2.679-3.085,4.7c-0.389,0.728-0.795,1.35-1.214,1.882v8.939h39v1.427h-4.392 v1.89h-1.447v-1.89h-2.877v1.89h-1.445v-1.89H72.63v1.89h-1.444v-1.89h-2.878v1.89h-1.446v-1.89h-2.879v1.89h-1.446v-1.89h-2.875 v1.89h-1.448v-1.89h-2.877v1.89h-1.445v-1.89h-2.877v1.89h-1.446v-1.89h-2.896v3.454h-1.375v-3.454h-2.912V91.5 c0,1.28,0.981,2.32,2.187,2.32h38.965c1.206,0,2.187-1.04,2.187-2.32V53.295C84.896,53.714,83.986,54.669,82.785,55.989z"></path><path d="M98.127,41.146H81.191c-3.767,0-6.832-3.065-6.832-6.832V18.312l-0.466-0.448H34.522c-2.829,0-5.125,2.296-5.125,5.127 v82.021c0,2.831,2.297,5.126,5.125,5.126h58.955c2.831,0,5.125-2.295,5.125-5.126V41.603L98.127,41.146z M88.124,91.5 c0,2.604-2.058,4.721-4.586,4.721H44.572c-2.529,0-4.587-2.117-4.587-4.721V75.045l1.95,1.562c0.355,0.284,0.68,0.428,0.992,0.439 c0.743-0.002,1.561-0.702,2.37-1.98v-0.748h-1.82v-1.5h1.82v-2.989h-1.82v-1.504h1.82V65.34h-1.82v-1.503h1.82v-2.988h-1.82v-1.503 h1.82v-2.988h-1.82v-1.499h1.82v-2.988h-1.82v-1.504h1.82v-4.559h1.375v26.857c0.882-1.49,1.739-2.703,2.618-3.694 c-0.12-0.319-0.207-0.656-0.207-1.021c0-1.607,1.255-2.913,2.805-2.913c0.655,0,1.246,0.241,1.721,0.633 c1.56-0.766,3.32-1.316,5.445-1.88c0.283-0.072,0.598-0.157,0.95-0.253c1.068-0.288,2.176-0.582,3.259-0.857 c0.152-1.461,1.33-2.604,2.775-2.604c1.054,0,1.961,0.607,2.439,1.499c0.165-0.022,0.339-0.048,0.489-0.062 c3.848-0.365,6.496-1.857,8.612-3.665c-0.234-0.422-0.373-0.908-0.373-1.432c0-1.608,1.255-2.912,2.806-2.912 c0.52,0,1.001,0.153,1.417,0.412c1.77-1.924,3.398-3.456,5.609-3.242l1.085,0.104V91.5z"></path><path d="M81.191,37.546H94.38h1.566L77.959,20.265v1.505v12.543C77.959,36.097,79.409,37.546,81.191,37.546z"></path></g>
  </symbol>
  <symbol id="design" viewBox="0 0 128 128">
    <g><path d="M53.188,69.677c0.076-0.005,0.153-0.007,0.231-0.007c0.062,0,0.124,0.009,0.186,0.013c0.071,0.003,0.143,0.007,0.214,0.015 c0.129,0.014,0.258,0.033,0.386,0.059c0.037,0.008,0.074,0.014,0.111,0.022c2.515,0.558,4.693,3.234,5.12,3.789l3.251,3.352 c0.659-0.751,2.921-3.127,5.134-3.263l0.198-0.006h0c1.52,0,2.955,1.057,3.92,1.982c0.58,0.556,0.99,1.063,1.148,1.268l1.303,1.342 c0.944-0.899,2.322-1.938,3.709-2.026l0.184-0.006c0.266,0,0.528,0.035,0.784,0.097c1.791,0.437,3.27,2.212,3.674,2.735 l3.562,3.669V50.652l-43.05,0.093v26.837l3.589-3.729C47.126,73.508,50.221,69.854,53.188,69.677z M77.76,64.192 c-0.001-0.662,0.689-1.2,1.54-1.2c0.113-0.002,0.211,0.032,0.317,0.048c0.255-0.355,0.721-0.6,1.276-0.602 c0.722-0.001,1.295,0.405,1.435,0.934c0.699,0.143,1.228,0.615,1.228,1.201c0.001,0.557-0.47,1.019-1.111,1.188 c-0.216,0.508-0.816,0.883-1.543,0.885c-0.659,0.002-1.218-0.305-1.483-0.735c-0.17,0.057-0.356,0.094-0.552,0.094 c-0.756,0.003-1.369-0.472-1.37-1.061c-0.003-0.24,0.12-0.454,0.296-0.634C77.787,64.27,77.76,64.233,77.76,64.192z M61.26,60.924 c0.19-0.748,0.994-1.318,2.011-1.32c0.785-0.004,1.44,0.344,1.801,0.836c0.148-0.023,0.287-0.07,0.444-0.07 c1.198-0.003,2.17,0.75,2.173,1.678c0.002,0.062-0.036,0.113-0.042,0.171c0.246,0.253,0.417,0.547,0.418,0.888 c0.001,0.828-0.859,1.5-1.924,1.502c-0.277,0-0.536-0.049-0.776-0.131c-0.368,0.611-1.154,1.044-2.082,1.044 c-1.023,0.002-1.866-0.52-2.175-1.233c-0.908-0.238-1.57-0.881-1.572-1.666C59.535,61.796,60.275,61.129,61.26,60.924z"></path><path d="M98.127,41.146H81.191c-3.767,0-6.832-3.065-6.832-6.832V18.312l-0.466-0.448H34.522c-2.829,0-5.125,2.296-5.125,5.127 v82.021c0,2.831,2.297,5.126,5.125,5.126h58.955c2.831,0,5.125-2.295,5.125-5.126V41.603L98.127,41.146z M88.706,85.183v3.444 v3.211c0,0.258-0.031,0.505-0.069,0.751c-0.039,0.241-0.098,0.475-0.171,0.703c-0.38,1.183-1.182,2.144-2.26,2.707 c-0.667,0.347-1.361,0.522-2.066,0.522H45.422c-0.817,0-1.629-0.235-2.352-0.682c-0.894-0.552-1.582-1.412-1.935-2.42 c-0.08-0.228-0.152-0.458-0.196-0.703c-0.057-0.305-0.084-0.593-0.084-0.879v-8.299v-3.462V48.35l47.85-0.103V85.183z"></path><path d="M81.191,37.546H94.38h1.566L77.959,20.265v1.505v12.543C77.959,36.097,79.409,37.546,81.191,37.546z"></path></g>
  </symbol>
  <symbol id="question" viewBox="0 0 128 128">
    <g><path class="st0" d="M64,2.688C30.192,2.688,2.688,30.192,2.688,64c0,33.808,27.504,61.312,61.312,61.312S125.312,97.807,125.312,64 C125.312,30.192,97.808,2.688,64,2.688z M64.042,99.272c-1.921,0-3.623-0.632-5.059-1.879c-1.478-1.28-2.227-3.071-2.227-5.323 c0-2.008,0.714-3.723,2.12-5.098c1.401-1.369,3.139-2.062,5.165-2.062c2.003,0,3.715,0.696,5.09,2.07 c1.374,1.375,2.07,3.087,2.07,5.09c0,2.22-0.739,4.001-2.196,5.296C67.583,98.63,65.913,99.272,64.042,99.272z M84.664,58.806 c-0.993,1.844-2.194,3.461-3.57,4.809c-1.31,1.282-3.692,3.47-7.082,6.501c-0.895,0.815-1.626,1.546-2.168,2.167 c-0.509,0.584-0.888,1.114-1.124,1.575c-0.244,0.479-0.436,0.959-0.567,1.428c-0.145,0.51-0.363,1.419-0.67,2.781 c-0.604,3.31-2.646,5.08-5.896,5.08c-1.693,0-3.144-0.566-4.31-1.685c-1.179-1.127-1.776-2.775-1.776-4.897 c0-2.438,0.389-4.594,1.154-6.405c0.758-1.794,1.781-3.394,3.04-4.755c1.206-1.305,2.845-2.866,4.871-4.642 c1.75-1.531,3.02-2.691,3.775-3.449c0.718-0.716,1.329-1.524,1.818-2.404c0.458-0.821,0.681-1.69,0.681-2.656 c0-1.931-0.699-3.517-2.139-4.848c-1.463-1.351-3.316-2.008-5.668-2.008c-2.73,0-4.739,0.666-5.969,1.979 c-1.327,1.417-2.478,3.567-3.42,6.393c-1.33,4.421-4.15,5.356-6.281,5.356c-1.817,0-3.373-0.651-4.624-1.936 c-1.244-1.276-1.876-2.701-1.876-4.233c0-2.797,0.9-5.653,2.675-8.489c1.764-2.821,4.363-5.184,7.728-7.024 c3.36-1.837,7.319-2.769,11.768-2.769c4.128,0,7.836,0.778,11.019,2.312c3.209,1.546,5.729,3.688,7.492,6.367 c1.77,2.691,2.666,5.658,2.666,8.819C86.211,54.67,85.69,56.904,84.664,58.806z"></path></g>
  </symbol>
  <symbol id="test" viewBox="0 0 128 128">
    <g><path d="M78.918,19.245H49.082c-5.815,0-8.775,2.96-8.775,8.775v71.959c0,5.815,2.96,8.775,8.775,8.775h29.837 c5.815,0,8.775-2.96,8.775-8.775V28.021C87.694,22.205,84.734,19.245,78.918,19.245z M56.054,24.034h15.893 c0.989,0,1.795,0.801,1.795,1.792c0,0.993-0.806,1.794-1.795,1.794H56.054c-0.991,0-1.795-0.801-1.795-1.794 C54.259,24.835,55.063,24.034,56.054,24.034z M64.129,107.29c-2.583,0-4.677-2.095-4.677-4.677s2.094-4.677,4.677-4.677 c2.582,0,4.676,2.095,4.676,4.677S66.711,107.29,64.129,107.29z M85.281,95.812H42.5V30.435h42.78V95.812z"></path><path d="M45.557,94.275h5.075c0.961,0,1.74-0.778,1.74-1.739v-5.077c0-0.961-0.779-1.74-1.74-1.74h-5.075 c-0.962,0-1.741,0.779-1.741,1.74v5.077C43.816,93.497,44.595,94.275,45.557,94.275z"></path><path d="M56.087,94.275h5.076c0.96,0,1.739-0.778,1.739-1.739v-5.077c0-0.961-0.779-1.74-1.739-1.74h-5.076 c-0.961,0-1.74,0.779-1.74,1.74v5.077C54.347,93.497,55.126,94.275,56.087,94.275z"></path><path d="M66.618,94.275h5.076c0.961,0,1.74-0.778,1.74-1.739v-5.077c0-0.961-0.779-1.74-1.74-1.74h-5.076 c-0.961,0-1.74,0.779-1.74,1.74v5.077C64.877,93.497,65.657,94.275,66.618,94.275z"></path><path d="M77.149,94.275h5.075c0.961,0,1.74-0.778,1.74-1.739v-5.077c0-0.961-0.779-1.74-1.74-1.74h-5.075 c-0.962,0-1.741,0.779-1.741,1.74v5.077C75.408,93.497,76.187,94.275,77.149,94.275z"></path><path d="M45.557,41.133h5.075c0.961,0,1.74-0.779,1.74-1.739v-5.077c0-0.961-0.779-1.74-1.74-1.74h-5.075 c-0.962,0-1.741,0.779-1.741,1.74v5.077C43.816,40.354,44.595,41.133,45.557,41.133z"></path><path d="M56.087,41.133h5.076c0.96,0,1.739-0.779,1.739-1.739v-5.077c0-0.961-0.779-1.74-1.739-1.74h-5.076 c-0.961,0-1.74,0.779-1.74,1.74v5.077C54.347,40.354,55.126,41.133,56.087,41.133z"></path><path d="M66.618,41.133h5.076c0.961,0,1.74-0.779,1.74-1.739v-5.077c0-0.961-0.779-1.74-1.74-1.74h-5.076 c-0.961,0-1.74,0.779-1.74,1.74v5.077C64.877,40.354,65.657,41.133,66.618,41.133z"></path><path d="M77.149,41.133h5.075c0.961,0,1.74-0.779,1.74-1.739v-5.077c0-0.961-0.779-1.74-1.74-1.74h-5.075 c-0.962,0-1.741,0.779-1.741,1.74v5.077C75.408,40.354,76.187,41.133,77.149,41.133z"></path><path d="M45.557,51.664h5.075c0.961,0,1.74-0.779,1.74-1.74v-5.077c0-0.961-0.779-1.739-1.74-1.739h-5.075 c-0.962,0-1.741,0.778-1.741,1.739v5.077C43.816,50.885,44.595,51.664,45.557,51.664z"></path><path d="M56.087,51.664h5.076c0.96,0,1.739-0.779,1.739-1.74v-5.077c0-0.961-0.779-1.739-1.739-1.739h-5.076 c-0.961,0-1.74,0.778-1.74,1.739v5.077C54.347,50.885,55.126,51.664,56.087,51.664z"></path><path d="M66.618,51.664h5.076c0.961,0,1.74-0.779,1.74-1.74v-5.077c0-0.961-0.779-1.739-1.74-1.739h-5.076 c-0.961,0-1.74,0.778-1.74,1.739v5.077C64.877,50.885,65.657,51.664,66.618,51.664z"></path><path d="M77.149,51.664h5.075c0.961,0,1.74-0.779,1.74-1.74v-5.077c0-0.961-0.779-1.739-1.74-1.739h-5.075 c-0.962,0-1.741,0.778-1.741,1.739v5.077C75.408,50.885,76.187,51.664,77.149,51.664z"></path><path d="M45.557,62.194h5.075c0.961,0,1.74-0.779,1.74-1.74v-5.077c0-0.96-0.779-1.738-1.74-1.738h-5.075 c-0.962,0-1.741,0.778-1.741,1.738v5.077C43.816,61.415,44.595,62.194,45.557,62.194z"></path><path d="M56.087,62.194h5.076c0.96,0,1.739-0.779,1.739-1.74v-5.077c0-0.96-0.779-1.738-1.739-1.738h-5.076 c-0.961,0-1.74,0.778-1.74,1.738v5.077C54.347,61.415,55.126,62.194,56.087,62.194z"></path><path d="M66.618,62.194h5.076c0.961,0,1.74-0.779,1.74-1.74v-5.077c0-0.96-0.779-1.738-1.74-1.738h-5.076 c-0.961,0-1.74,0.778-1.74,1.738v5.077C64.877,61.415,65.657,62.194,66.618,62.194z"></path></g>
  </symbol>
  <symbol id="rocket-up" viewBox="0 0 128 128">
    <g><path d="M100.048,78.337c-1.58-3.812-5.635-9.721-12.283-14.866c-1.711-1.325-3.784-2.735-6.179-4.023 c-1.186-12.426-4.138-23.795-7.343-32.561l-0.016,0.005c-2.667,0.586-5.986,1.051-9.812,1.051c-4.039,0-7.602-0.518-10.449-1.149 l0,0c-3.186,8.685-6.127,19.95-7.343,32.312c-2.431,1.235-4.53,2.594-6.258,3.868c-6.737,4.974-10.811,10.78-12.375,14.557 c-1.173,2.834-1.196,5.019-0.063,6.151c0.922,0.921,2.017,1.35,3.446,1.35c1.727,0,3.787-0.61,6.639-1.454 c2.325-0.688,5.17-1.529,8.671-2.26c0.46,3.197,0.996,4.594,0.996,4.594s6.876,3.668,16.696,3.668 c9.821,0,16.139-3.668,16.139-3.668s0.536-1.445,0.991-4.723c3.787,0.714,6.862,1.546,9.362,2.225 c2.837,0.769,4.887,1.324,6.504,1.325h0.002c1.251,0,2.171-0.336,2.894-1.058C101.189,82.759,101.113,80.911,100.048,78.337z M64.097,52.162c-4.76,0-8.619-3.858-8.619-8.619s3.859-8.62,8.619-8.62s8.619,3.859,8.619,8.62S68.856,52.162,64.097,52.162z"></path><polygon points="53.966,26.794 53.966,26.794 53.968,26.788 "></polygon><path d="M54.518,23.729c2.751,0.577,6.114,1.031,9.896,1.031c3.574,0,6.708-0.406,9.279-0.937c0.01-0.002,0.021-0.004,0.03-0.006 c-1.868-5.387-3.834-9.613-5.599-12.396c-0.006-0.008-0.011-0.016-0.015-0.024c-0.095-0.148-0.188-0.291-0.281-0.431 c-0.013-0.019-0.026-0.039-0.038-0.058c-0.087-0.129-0.173-0.254-0.257-0.375c-0.02-0.027-0.039-0.055-0.059-0.082 c-0.078-0.114-0.158-0.223-0.236-0.329c-0.025-0.032-0.048-0.064-0.072-0.096c-0.074-0.099-0.148-0.195-0.222-0.288 c-0.027-0.035-0.055-0.069-0.082-0.103c-0.069-0.087-0.138-0.17-0.206-0.252c-0.031-0.036-0.062-0.071-0.092-0.107 c-0.064-0.075-0.129-0.148-0.192-0.217c-0.033-0.037-0.066-0.072-0.1-0.107c-0.061-0.064-0.121-0.127-0.179-0.188 c-0.036-0.036-0.071-0.069-0.106-0.104c-0.057-0.055-0.112-0.108-0.168-0.158c-0.037-0.034-0.074-0.065-0.11-0.097 c-0.052-0.046-0.104-0.091-0.156-0.132c-0.038-0.032-0.076-0.06-0.115-0.089c-0.048-0.037-0.097-0.074-0.144-0.107 c-0.041-0.028-0.079-0.052-0.12-0.078c-0.044-0.028-0.09-0.058-0.133-0.084c-0.041-0.023-0.081-0.044-0.123-0.065 c-0.04-0.021-0.081-0.043-0.121-0.062c-0.043-0.02-0.085-0.034-0.127-0.05c-0.037-0.014-0.073-0.029-0.108-0.041 c-0.048-0.015-0.094-0.024-0.142-0.035c-0.028-0.006-0.057-0.015-0.084-0.02c-0.072-0.012-0.143-0.018-0.211-0.019h-0.005H64.12 c-0.005,0-0.01,0.001-0.014,0.001c0,0-0.007-0.001-0.01-0.001c-0.021,0-0.045,0.005-0.067,0.007 c-0.042,0.003-0.085,0.004-0.129,0.012c-0.022,0.003-0.047,0.011-0.07,0.017c-0.053,0.01-0.104,0.021-0.157,0.038 c-0.029,0.009-0.061,0.022-0.09,0.034c-0.05,0.018-0.098,0.035-0.148,0.057c-0.033,0.015-0.067,0.034-0.101,0.05 c-0.049,0.024-0.096,0.047-0.146,0.076c-0.037,0.021-0.073,0.045-0.11,0.068c-0.048,0.03-0.096,0.06-0.146,0.093 c-0.039,0.026-0.078,0.057-0.118,0.086C62.767,8.195,62.72,8.23,62.67,8.27c-0.042,0.033-0.084,0.069-0.126,0.104 c-0.048,0.041-0.096,0.082-0.146,0.125c-0.043,0.04-0.089,0.082-0.133,0.124c-0.047,0.045-0.097,0.092-0.144,0.14 c-0.048,0.046-0.094,0.094-0.141,0.144c-0.049,0.05-0.097,0.1-0.145,0.153c-0.049,0.053-0.099,0.108-0.147,0.164 c-0.048,0.054-0.095,0.108-0.145,0.165c-0.051,0.061-0.103,0.123-0.154,0.187c-0.047,0.057-0.093,0.115-0.141,0.174 c-0.055,0.069-0.109,0.139-0.163,0.21c-0.046,0.06-0.092,0.121-0.139,0.183c-0.057,0.076-0.115,0.154-0.172,0.233 c-0.045,0.062-0.089,0.124-0.133,0.188c-0.061,0.086-0.121,0.173-0.183,0.263c-0.042,0.061-0.085,0.124-0.127,0.188 c-0.063,0.096-0.128,0.193-0.193,0.293c-0.038,0.061-0.079,0.123-0.118,0.185c-0.068,0.108-0.137,0.216-0.205,0.328 c-0.036,0.057-0.071,0.117-0.107,0.175c-0.074,0.122-0.147,0.244-0.222,0.369c-0.029,0.05-0.06,0.103-0.089,0.154 c-0.08,0.138-0.161,0.277-0.243,0.421c-0.021,0.036-0.04,0.074-0.062,0.111c-0.092,0.162-0.181,0.325-0.272,0.494 c-0.005,0.008-0.01,0.018-0.014,0.026c-0.663,1.224-1.343,2.626-2.025,4.193c-0.097,0.224-0.195,0.451-0.292,0.681 c-0.003,0.008-0.007,0.016-0.01,0.024c-0.104,0.244-0.206,0.491-0.309,0.742c-0.012,0.028-0.024,0.056-0.035,0.084 c-0.097,0.236-0.193,0.478-0.291,0.722c-0.018,0.045-0.035,0.088-0.053,0.133c-0.092,0.233-0.185,0.47-0.276,0.708 c-0.022,0.058-0.045,0.116-0.066,0.174c-0.089,0.23-0.178,0.465-0.266,0.701c-0.026,0.069-0.052,0.139-0.077,0.209 c-0.086,0.229-0.171,0.462-0.255,0.698c-0.03,0.08-0.059,0.16-0.088,0.239c-0.081,0.229-0.164,0.461-0.245,0.695 c-0.018,0.049-0.035,0.096-0.053,0.146h0.002C54.485,23.722,54.502,23.725,54.518,23.729z"></path><path d="M64.097,36.77c-3.741,0-6.773,3.032-6.773,6.774c0,3.741,3.032,6.774,6.773,6.774s6.773-3.033,6.773-6.774 C70.87,39.802,67.838,36.77,64.097,36.77z M60.54,46.284c-1.738-1.739-1.738-4.559,0-6.298c1.739-1.739,4.558-1.739,6.298,0 C68.576,41.726,62.279,48.023,60.54,46.284z"></path><path d="M64.363,91.791c-5.016,0.004-10.046,1.149-10.046,3.618c0,4.945,9.963,24.969,9.963,24.969s10.128-20.157,10.128-24.969 C74.408,92.934,69.394,91.788,64.363,91.791z"></path></g>
  </symbol>
</svg>