<svg xmlns="http://www.w3.org/2000/svg">
	<symbol id="whatsapp" viewBox="-23 -21 682 682.66669">
    <path d="m544.386719 93.007812c-59.875-59.945312-139.503907-92.9726558-224.335938-93.007812-174.804687 0-317.070312 142.261719-317.140625 317.113281-.023437 55.894531 14.578125 110.457031 42.332032 158.550781l-44.992188 164.335938 168.121094-44.101562c46.324218 25.269531 98.476562 38.585937 151.550781 38.601562h.132813c174.785156 0 317.066406-142.273438 317.132812-317.132812.035156-84.742188-32.921875-164.417969-92.800781-224.359376zm-224.335938 487.933594h-.109375c-47.296875-.019531-93.683594-12.730468-134.160156-36.742187l-9.621094-5.714844-99.765625 26.171875 26.628907-97.269531-6.269532-9.972657c-26.386718-41.96875-40.320312-90.476562-40.296875-140.28125.054688-145.332031 118.304688-263.570312 263.699219-263.570312 70.40625.023438 136.589844 27.476562 186.355469 77.300781s77.15625 116.050781 77.132812 186.484375c-.0625 145.34375-118.304687 263.59375-263.59375 263.59375zm144.585938-197.417968c-7.921875-3.96875-46.882813-23.132813-54.148438-25.78125-7.257812-2.644532-12.546875-3.960938-17.824219 3.96875-5.285156 7.929687-20.46875 25.78125-25.09375 31.066406-4.625 5.289062-9.242187 5.953125-17.167968 1.984375-7.925782-3.964844-33.457032-12.335938-63.726563-39.332031-23.554687-21.011719-39.457031-46.960938-44.082031-54.890626-4.617188-7.9375-.039062-11.8125 3.476562-16.171874 8.578126-10.652344 17.167969-21.820313 19.808594-27.105469 2.644532-5.289063 1.320313-9.917969-.664062-13.882813-1.976563-3.964844-17.824219-42.96875-24.425782-58.839844-6.4375-15.445312-12.964843-13.359374-17.832031-13.601562-4.617187-.230469-9.902343-.277344-15.1875-.277344-5.28125 0-13.867187 1.980469-21.132812 9.917969-7.261719 7.933594-27.730469 27.101563-27.730469 66.105469s28.394531 76.683594 32.355469 81.972656c3.960937 5.289062 55.878906 85.328125 135.367187 119.648438 18.90625 8.171874 33.664063 13.042968 45.175782 16.695312 18.984374 6.03125 36.253906 5.179688 49.910156 3.140625 15.226562-2.277344 46.878906-19.171875 53.488281-37.679687 6.601563-18.511719 6.601563-34.375 4.617187-37.683594-1.976562-3.304688-7.261718-5.285156-15.183593-9.253906zm0 0" fill-rule="evenodd"/>
  </symbol>
  <symbol id="check" viewBox="0 0 515.556 515.556">
    <path d="m0 274.226 176.549 176.886 339.007-338.672-48.67-47.997-290.337 290-128.553-128.552z"/>
  </symbol>
  <symbol id="chevron-left" viewBox="0 0 256 256">
		<g><g><polygon points="207.093,30.187 176.907,0 48.907,128 176.907,256 207.093,225.813 109.28,128 "/></g></g><g></g><g></g><g></g><g></g><g></g><g></g><g></g><g></g><g></g><g></g><g></g><g></g><g></g><g></g><g></g>
	</symbol>
	<symbol id="chevron-right" viewBox="0 0 256 256">
		<g><g><polygon points="79.093,0 48.907,30.187 146.72,128 48.907,225.813 79.093,256 207.093,128 "/></g></g><g></g><g></g><g></g><g></g><g></g><g></g><g></g><g></g><g></g><g></g><g></g><g></g><g></g><g></g><g></g>
	</symbol>
	<symbol id="rocket" viewBox="0 0 60 60">
		<g><path class="st0" d="M10.482,34.473c-2.245,0-9.349-1.626-9.65-1.696c-0.342-0.079-0.583-0.383-0.582-0.733 s0.245-0.653,0.587-0.729c0.299-0.067,7.343-1.629,9.646-1.629c1.916,0,1.916,1.736,1.916,2.39 c0.001,0.536,0.003,1.348-0.546,1.898C11.522,34.305,11.061,34.473,10.482,34.473z M4.621,32.059 c2.164,0.441,4.747,0.914,5.862,0.914c0.198,0,0.288-0.039,0.309-0.059c0.109-0.11,0.108-0.639,0.107-0.837 c0-0.892-0.072-0.892-0.416-0.892C9.338,31.185,6.771,31.637,4.621,32.059z"></path><path class="st0" d="M39.921,38.784c-0.001,0-0.001,0-0.001,0c-1.785,0-3.602-0.052-5.526-0.107 c-2.213-0.063-4.721-0.136-7.564-0.136c-2.728,0-5.548-0.312-7.815-0.562c-1.042-0.115-1.952-0.216-2.651-0.262 c-0.001,0-0.003,0-0.004,0c-0.536,0-0.921,0.35-0.924,0.353c-0.212,0.209-0.526,0.272-0.803,0.163 c-0.276-0.11-0.461-0.372-0.473-0.668c-0.003-0.079-0.074-1.981-0.074-7.072c0-0.279-0.008-0.628-0.017-1.001 c-0.022-0.947-0.047-2.02,0.037-2.67c0.032-0.249,0.188-0.466,0.413-0.577c0.226-0.111,0.492-0.102,0.709,0.026l1.146,0.669 l12.494-0.721c1.147-1.044,3.632-2.675,5.837-3.363c1.125-0.352,2.482-0.53,4.034-0.53c1.201,0,2.52,0.11,3.812,0.319 c10.063,1.627,17.2,8.048,17.2,9.727c0,1.402-3.002,4.849-11.923,5.955C45.275,38.643,42.837,38.784,39.921,38.784z M16.299,36.214c0.053,0,0.107,0.002,0.162,0.005c0.717,0.047,1.649,0.15,2.717,0.268c2.23,0.246,5.005,0.553,7.65,0.553 c2.864,0,5.384,0.072,7.607,0.136c1.913,0.055,3.72,0.107,5.483,0.107c0,0,0.001,0,0.001,0c2.852,0,5.233-0.138,7.721-0.446 c7.881-0.977,10.334-3.759,10.589-4.421c-0.587-1.071-6.585-6.781-15.92-8.292c-2.73-0.439-5.393-0.39-7.16,0.162 c-2.096,0.654-4.545,2.304-5.437,3.195c-0.13,0.13-0.303,0.208-0.487,0.218l-12.994,0.75 c-0.146,0.013-0.294-0.026-0.421-0.101l-0.266-0.155c0.001,0.416,0.012,0.862,0.021,1.262 c0.009,0.387,0.018,0.748,0.018,1.037c0,2.866,0.023,4.731,0.043,5.812C15.833,36.25,16.058,36.214,16.299,36.214z"></path><path class="st0" d="M22.105,27.932c-0.394,0-0.725-0.307-0.748-0.706c-0.17-2.874-0.94-4.692-1.449-5.896 c-0.318-0.759-0.536-1.279-0.567-1.813c-0.035-0.56,0.156-1.043,0.567-1.436c0.361-0.341,1.083-0.664,2.481-0.27 c1.195,0.337,3.048,1.279,4.669,2.912c1.223,1.231,2.714,3.27,2.877,5.99c0.025,0.414-0.29,0.769-0.704,0.793 c-0.403,0.028-0.769-0.29-0.793-0.704c-0.136-2.253-1.404-3.975-2.445-5.023c-1.416-1.426-3-2.239-4.011-2.524 c-0.67-0.188-0.988-0.119-1.048-0.081c-0.082,0.079-0.104,0.134-0.097,0.251c0.017,0.281,0.203,0.725,0.438,1.287 c0.563,1.332,1.393,3.293,1.579,6.425c0.025,0.414-0.291,0.769-0.704,0.793C22.135,27.932,22.12,27.932,22.105,27.932z"></path><path class="st0" d="M45.402,29.654c-2.32,0-4.16-0.398-4.313-0.432c-0.255-0.057-0.462-0.242-0.546-0.489 c-0.028-0.081-0.662-1.999,0.618-4.154c0.456-0.765,0.979-1.347,1.251-1.626c0.29-0.296,0.764-0.303,1.061-0.015 c0.297,0.289,0.304,0.763,0.015,1.061c-0.225,0.232-0.66,0.715-1.037,1.348c-0.616,1.037-0.626,1.986-0.565,2.5 c1.626,0.279,7.068,0.97,10.061-1.544c0.317-0.266,0.79-0.226,1.057,0.092c0.267,0.317,0.226,0.79-0.092,1.057 C50.811,29.214,47.841,29.654,45.402,29.654z"></path><path class="st0" d="M21.502,42.371c-0.416,0-0.646-0.055-0.798-0.107c-0.742-0.257-0.822-0.792-0.822-1.01 c0-0.425,0.253-0.75,0.546-1.128c0.168-0.214,0.96-1.288,0.989-2.582c0.009-0.414,0.36-0.725,0.767-0.733 c0.414,0.01,0.742,0.353,0.733,0.767c-0.035,1.517-0.785,2.752-1.167,3.284c0.178-0.01,0.404-0.032,0.691-0.073 c1.091-0.156,2.782-0.558,4.254-1.219c1.536-0.687,2.112-1.356,2.14-1.755c0.029-0.413,0.396-0.726,0.8-0.696 c0.413,0.028,0.725,0.386,0.696,0.8c-0.079,1.143-1.096,2.159-3.023,3.021c-1.614,0.724-3.462,1.164-4.654,1.334 C22.161,42.344,21.788,42.371,21.502,42.371z"></path><path class="st0" d="M51.979,37.524c-0.388,0-0.717-0.299-0.747-0.693c-0.29-3.811,1.068-7.155,2.259-9.29 c0.202-0.362,0.66-0.492,1.02-0.29c0.362,0.202,0.492,0.658,0.29,1.02c-1.09,1.955-2.335,5.007-2.073,8.445 c0.031,0.413-0.278,0.773-0.691,0.805C52.018,37.524,51.999,37.524,51.979,37.524z"></path></g>
	</symbol>
  <symbol id="planet" viewBox="0 0 60 60">
    <g><path class="st0" d="M14.913,34.533c-0.355,0-0.671-0.254-0.737-0.616c-0.174-0.959-0.262-1.942-0.262-2.922 c0-8.96,7.29-16.25,16.25-16.25s16.25,7.29,16.25,16.25c0,0.981-0.088,1.964-0.262,2.922c-0.074,0.408-0.468,0.68-0.872,0.604 c-0.407-0.074-0.678-0.464-0.604-0.872c0.158-0.871,0.238-1.764,0.238-2.655c0-8.133-6.617-14.75-14.75-14.75 s-14.75,6.617-14.75,14.75c0,0.891,0.08,1.784,0.238,2.655c0.073,0.408-0.197,0.798-0.604,0.872 C15.003,34.529,14.958,34.533,14.913,34.533z"></path><path class="st0" d="M30.164,47.245c-6.156,0-11.713-3.413-14.5-8.907c-0.188-0.37-0.04-0.821,0.33-1.008 c0.371-0.188,0.82-0.039,1.008,0.33c2.53,4.987,7.573,8.085,13.162,8.085c5.587,0,10.63-3.098,13.161-8.084 c0.188-0.37,0.637-0.517,1.009-0.33c0.369,0.188,0.517,0.639,0.329,1.008C41.875,43.833,36.319,47.245,30.164,47.245z"></path><path class="st0" d="M30.164,39.712c-4.87,0-9.69-0.335-13.94-0.971c-4.754-0.71-15.81-2.886-15.81-7.747 c0-4.861,11.056-7.037,15.81-7.746c0.402-0.062,0.791,0.221,0.853,0.631c0.061,0.41-0.222,0.792-0.632,0.853 c-10.037,1.499-14.53,4.225-14.53,6.263s4.493,4.764,14.53,6.264c8.357,1.248,19.082,1.248,27.439,0 c10.037-1.5,14.53-4.226,14.53-6.264s-4.493-4.764-14.53-6.263c-0.41-0.061-0.692-0.443-0.632-0.853 c0.061-0.41,0.447-0.694,0.853-0.631c4.754,0.709,15.81,2.885,15.81,7.746c0,4.861-11.056,7.037-15.81,7.747 C39.854,39.377,35.034,39.712,30.164,39.712z"></path><path class="st0" d="M30.164,36.229c-4.49,0-8.714-0.338-12.215-0.977c-1.193-0.217-2.285-0.468-3.245-0.748 c-3.104-0.906-4.614-2.024-4.614-3.417c0-1.389,1.498-2.503,4.581-3.407c0.399-0.118,0.814,0.111,0.931,0.509 s-0.111,0.814-0.509,0.931c-2.771,0.812-3.503,1.643-3.503,1.968c0,0.327,0.738,1.162,3.534,1.977 c0.91,0.266,1.951,0.505,3.094,0.713c3.365,0.614,7.607,0.952,11.946,0.952s8.581-0.338,11.945-0.952 c1.146-0.208,2.187-0.448,3.094-0.713c2.796-0.815,3.535-1.65,3.535-1.977c0-0.325-0.732-1.155-3.502-1.968 c-0.397-0.117-0.625-0.533-0.509-0.931s0.531-0.626,0.931-0.509c3.082,0.904,4.58,2.019,4.58,3.407 c0,1.394-1.51,2.512-4.615,3.417c-0.956,0.279-2.048,0.531-3.245,0.748C38.878,35.891,34.654,36.229,30.164,36.229z"></path></g>
  </symbol>
  <symbol id="star" viewBox="0 0 60 60">
    <g><path class="st0" d="M52.647,53.511c-0.12,0-0.239-0.028-0.349-0.086l-9.93-5.22l-9.931,5.22 c-0.252,0.132-0.558,0.111-0.79-0.057c-0.231-0.168-0.347-0.453-0.298-0.734l1.898-11.057l-8.035-7.831 c-0.266-0.259-0.302-0.674-0.085-0.975c0.05-0.07,5.018-7.088,2.439-12.114c-1.858-3.621-7.162-5.457-15.765-5.457 c-3.133,0-6.735,0.251-10.708,0.748c-0.352,0.047-0.689-0.166-0.803-0.504c-0.114-0.337,0.025-0.709,0.333-0.888 c0.566-0.329,14.036-8.066,28.457-8.066c15.457,0,26.054,9.173,30.645,26.528c0.069,0.262-0.008,0.54-0.202,0.729l-8.033,7.831 l1.896,11.057c0.048,0.282-0.067,0.566-0.298,0.734C52.958,53.463,52.803,53.511,52.647,53.511z M42.368,46.608 c0.12,0,0.24,0.029,0.349,0.086l8.934,4.696l-1.706-9.948c-0.042-0.244,0.039-0.492,0.216-0.664l8-7.799 C53.649,16.396,43.867,7.989,29.08,7.989c-9.682,0-19.139,3.712-24.108,6.036c13.317-1.171,21.314,0.844,23.931,5.952 c2.571,5.02-0.994,11.269-2.196,13.132l7.869,7.669c0.177,0.172,0.257,0.42,0.216,0.664l-1.708,9.948l8.935-4.696 C42.128,46.637,42.249,46.608,42.368,46.608z"></path><path class="st0" d="M52.647,53.511c-0.12,0-0.239-0.028-0.349-0.086l-9.93-5.22l-9.931,5.22 c-0.252,0.132-0.558,0.111-0.79-0.057c-0.231-0.168-0.347-0.453-0.298-0.734l1.898-11.057l-8.035-7.831 c-0.205-0.199-0.278-0.498-0.19-0.769c0.088-0.271,0.323-0.469,0.605-0.51l11.103-1.613l4.965-10.06 c0.126-0.256,0.387-0.418,0.672-0.418l0,0c0.286,0,0.546,0.162,0.672,0.418l4.964,10.06l11.103,1.613 c0.282,0.041,0.517,0.239,0.605,0.51c0.088,0.271,0.015,0.57-0.19,0.769l-8.033,7.831l1.896,11.057 c0.048,0.282-0.067,0.566-0.298,0.734C52.958,53.463,52.803,53.511,52.647,53.511z M42.368,46.608c0.12,0,0.24,0.029,0.349,0.086 l8.934,4.696l-1.706-9.948c-0.042-0.244,0.039-0.492,0.216-0.664l7.227-7.045l-9.989-1.452c-0.244-0.036-0.456-0.189-0.564-0.41 l-4.466-9.051l-4.467,9.051c-0.109,0.221-0.32,0.375-0.564,0.41l-9.989,1.451l7.229,7.045c0.177,0.172,0.257,0.42,0.216,0.664 l-1.708,9.948l8.935-4.696C42.128,46.637,42.249,46.608,42.368,46.608z"></path></g>
  </symbol>
  <symbol id="satellite" viewBox="0 0 60 60">
    <g transform="scale(0.6) translate(20, 20)"><path class="st0" d="M28.098,45.461c-5.573,0-9.973-1.512-10.293-1.625c-0.093-0.033-0.177-0.083-0.248-0.146 c-0.459-0.202-0.861-0.472-1.197-0.804c-3.715-3.681,0.337-14.612,8.671-23.394c0.285-0.302,0.76-0.313,1.061-0.028 c0.3,0.285,0.312,0.76,0.027,1.06c-8.241,8.684-11.445,18.578-8.703,21.295c0.249,0.247,0.553,0.433,0.928,0.57 c0.072,0.026,0.139,0.063,0.198,0.108c1.837,0.579,13.854,3.997,22.551-2.445c2.73-2.022,15.179-15.108,8.422-28.505 c-0.022-0.046-0.041-0.094-0.055-0.144c-0.136-0.508-0.364-0.924-0.681-1.237c-2.671-2.645-12.037,0.335-20.57,8.287 c-0.303,0.283-0.778,0.266-1.061-0.038s-0.266-0.778,0.037-1.06C35.84,9.294,46.21,5.514,49.834,9.103 c0.49,0.485,0.845,1.104,1.053,1.838c7.151,14.305-6.009,28.177-8.902,30.319C37.57,44.529,32.472,45.461,28.098,45.461z"></path><path class="st0" d="M42.395,48.178c-0.323,0-0.65-0.031-0.979-0.096c-2.571-0.513-4.296-2.864-4.011-5.469 c0.045-0.413,0.404-0.708,0.827-0.664c0.411,0.045,0.709,0.416,0.663,0.827c-0.196,1.796,1.04,3.481,2.813,3.834 c1.902,0.374,3.761-0.863,4.142-2.767c0.366-1.847-0.776-3.649-2.602-4.102c-0.402-0.1-0.647-0.507-0.547-0.909 c0.1-0.403,0.511-0.646,0.908-0.547c2.604,0.646,4.234,3.216,3.711,5.851C46.843,46.523,44.739,48.178,42.395,48.178z"></path><path class="st0" d="M21.897,41.414c-1.267,0-2.288-0.358-3.014-1.076c-2.577-2.553-0.75-9.842,7.728-18.833 c0.285-0.3,0.758-0.314,1.061-0.031c0.301,0.284,0.315,0.759,0.031,1.061c-7.124,7.556-9.766,14.755-7.764,16.739 c1.08,1.068,3.521,0.817,6.692-0.688c3.452-1.637,7.333-4.537,10.928-8.166c3.597-3.629,6.461-7.536,8.066-11.002 c1.477-3.189,1.705-5.63,0.627-6.698c-1.909-1.886-8.597,0.39-16.086,7.364c-0.303,0.283-0.777,0.266-1.06-0.038 s-0.266-0.778,0.038-1.06c6.548-6.101,14.893-10.575,18.163-7.332c1.576,1.562,1.462,4.542-0.321,8.394 c-1.677,3.621-4.646,7.679-8.361,11.428s-7.746,6.755-11.351,8.465C25.204,40.921,23.383,41.414,21.897,41.414z"></path><path class="st0" d="M31.321,28.404c-0.238,0-0.462-0.113-0.604-0.304c-2.378-3.216-6.179-8.296-7.208-9.525 c-0.188,0.033-0.38,0.049-0.571,0.049c-1.955,0-3.545-1.59-3.545-3.545c0-1.954,1.59-3.544,3.545-3.544 c1.954,0,3.544,1.59,3.544,3.544c0,0.267-0.03,0.532-0.092,0.79c1.198,1.078,5.942,4.982,8.958,7.44 c0.118,0.096,0.204,0.226,0.246,0.372c0.021,0.07,0.483,1.733-1.05,3.266C33.088,28.404,31.361,28.406,31.321,28.404z M23.752,16.996c0.484,0,0.618,0,7.915,9.865c0.423-0.081,1.154-0.312,1.817-0.976c0.644-0.644,0.709-1.281,0.693-1.596 c-9.593-7.816-9.59-7.821-9.336-8.483c0.094-0.238,0.141-0.481,0.141-0.727c0-1.127-0.917-2.044-2.044-2.044 c-1.128,0-2.045,0.917-2.045,2.044c0,1.127,0.917,2.045,2.045,2.045c0.196,0,0.393-0.031,0.583-0.092 C23.596,17.008,23.675,16.996,23.752,16.996z"></path><path class="st0" d="M35.291,59.606c-0.069,0-0.141-0.01-0.211-0.03c-0.397-0.116-0.625-0.533-0.509-0.931l3.802-12.985 c0.116-0.397,0.531-0.625,0.931-0.509c0.397,0.116,0.625,0.533,0.509,0.931l-3.802,12.985 C35.915,59.394,35.616,59.606,35.291,59.606z"></path><path class="st0" d="M50.197,59.75c-0.315,0-0.608-0.2-0.712-0.516l-4.377-13.292c-0.13-0.393,0.084-0.817,0.478-0.947 c0.397-0.13,0.817,0.085,0.946,0.478l4.377,13.292c0.13,0.393-0.084,0.817-0.478,0.947 C50.354,59.738,50.274,59.75,50.197,59.75z"></path><path class="st0" d="M13.447,20.756c-0.333,0-0.637-0.223-0.725-0.561c-0.881-3.374,0.533-7.536,3.603-10.604 c3.479-3.479,8.18-4.772,11.703-3.222c0.379,0.167,0.551,0.61,0.384,0.989c-0.167,0.379-0.611,0.548-0.989,0.384 c-2.963-1.307-6.993-0.135-10.037,2.909c-2.7,2.699-3.961,6.296-3.212,9.164c0.104,0.401-0.136,0.811-0.536,0.915 C13.574,20.748,13.511,20.756,13.447,20.756z"></path><path class="st0" d="M8.094,21.193c-0.333,0-0.637-0.223-0.725-0.561c-1.23-4.718,0.78-10.571,5.124-14.912 c4.836-4.836,11.582-6.728,16.412-4.601c0.379,0.167,0.551,0.61,0.384,0.989c-0.167,0.379-0.61,0.55-0.989,0.384 c-4.271-1.884-10.338-0.12-14.746,4.289c-3.975,3.972-5.832,9.26-4.733,13.472c0.104,0.401-0.136,0.811-0.536,0.915 C8.221,21.185,8.157,21.193,8.094,21.193z"></path></g>
  </symbol>
</svg>